#N canvas 93 173 627 686 12;
#X obj 11 141 cnv 15 425 500 empty empty empty 10 12 0 14 -261234 -1
0;
#X obj 11 21 cnv 15 450 50 empty empty AUDIO-OBJECTS 10 24 0 36 -1
-262144 0;
#X obj 11 120 cnv 15 425 20 empty empty AUDIO-MATH 10 12 0 14 -1 -262144
0;
#X obj 441 141 cnv 15 425 500 empty empty empty 10 12 0 14 -261682
-1 0;
#X obj 441 120 cnv 15 425 20 empty empty GENERAL-AUDIO-MANIPULATION
10 12 0 14 -1 -262144 0;
#X obj 881 141 cnv 15 425 250 empty empty empty 10 12 0 14 -204786
-1 0;
#X obj 881 120 cnv 15 425 20 empty empty OSCILLATORS-AND-TABLES 10
12 0 14 -1 -262144 0;
#X obj 881 431 cnv 15 425 200 empty empty empty 10 12 0 14 -204800
-1 0;
#X obj 881 410 cnv 15 425 20 empty empty AUDIO-DELAY 10 12 0 14 -1
-262144 0;
#X text 16 73 Right-Click a blank space and Left-Click "Help" for the
full list of objects.;
#X obj 1321 141 cnv 15 425 500 empty empty empty 10 12 0 14 -203904
-1 0;
#X obj 1321 120 cnv 15 425 20 empty empty AUDIO-FILTERS 10 12 0 14
-1 -262144 0;
#X text 144 193 - arithmetic on audio signals;
#X text 116 223 - maximum or minimum of 2 inputs;
#X obj 16 251 clip~;
#X text 116 251 - constrict signal to lie between two bounds;
#X obj 16 354 wrap~;
#X obj 16 382 fft~;
#X text 116 382 - complex forward discrete Fourier transform;
#X obj 16 404 ifft~;
#X text 116 404 - complex inverse discrete Fourier transform;
#X obj 16 434 rfft~;
#X text 116 434 - real forward discrete Fourier transform;
#X obj 16 456 rifft~;
#X text 116 456 - real inverse discrete Fourier transform;
#X obj 16 510 framp~;
#X text 116 510 - output a ramp for each block;
#X obj 16 540 mtof~;
#X obj 67 540 ftom~;
#X obj 117 540 rmstodb~;
#X obj 195 540 dbtorms~;
#X text 274 540 - acoustic conversions;
#X obj 57 223 min~;
#X obj 16 223 max~;
#X obj 16 193 +~;
#X obj 48 193 -~;
#X obj 79 193 *~;
#X obj 111 193 /~;
#X text 116 352 - wraparound (fractional part);
#X obj 15 484 pow~;
#X obj 59 484 log~;
#X obj 103 484 exp~;
#X text 197 486 - math;
#X obj 149 485 abs~;
#X obj 16 276 sqrt~;
#X obj 16 301 rsqrt~;
#X text 105 275 - approximate (16-bit) square root;
#X text 115 303 - reciprocal square root;
#X obj 15 325 q8_sqrt~;
#X obj 100 326 q8_rsqrt~;
#X text 208 326 - fast \, cheap 8 bits versions;
#X obj 16 152 expr~;
#X obj 69 152 fexpr~;
#X text 135 153 - C-style expressions;
#X obj 450 151 dac~;
#X text 530 151 - audio output;
#X obj 450 175 adc~;
#X text 530 175 - audio input;
#X obj 450 199 sig~;
#X text 530 199 - convert numbers to audio signals;
#X obj 450 223 line~;
#X text 530 223 - generate audio ramps;
#X obj 450 247 vline~;
#X text 530 247 - deluxe line~;
#X obj 450 295 snapshot~;
#X text 530 295 - sample a signal (convert it back to a number);
#X obj 450 319 vsnapshot~;
#X text 530 319 - deluxe snapshot~;
#X obj 450 343 bang~;
#X text 530 343 - send a bang message after each DSP block;
#X obj 450 367 samplerate~;
#X text 530 367 - get the sample rate;
#X obj 450 391 send~;
#X text 530 391 - nonlocal signal connection with fanout;
#X obj 450 415 receive~;
#X text 530 415 - get signal from send~;
#X obj 450 439 throw~;
#X text 530 439 - add to a summing bus;
#X obj 450 463 catch~;
#X text 530 463 - define and read a summing bus;
#X obj 450 487 readsf~;
#X text 530 487 - soundfile playback from disk;
#X obj 450 511 writesf~;
#X text 530 511 - record sound to disk;
#X obj 450 271 threshold~;
#X text 530 271 - detect signal thresholds;
#X obj 896 153 phasor~;
#X text 996 153 - sawtooth oscillator;
#X obj 896 177 cos~;
#X text 996 177 - cosine;
#X obj 896 201 osc~;
#X text 996 201 - cosine oscillator;
#X obj 896 225 tabwrite~;
#X text 996 225 - write to a table;
#X obj 896 249 tabplay~;
#X text 996 249 - play back from a table (non-transposing);
#X obj 896 273 tabread~;
#X text 996 273 - non-interpolating table read;
#X obj 896 297 tabread4~;
#X text 996 297 - four-point interpolating table read;
#X obj 896 321 tabosc4~;
#X text 996 321 - wavetable oscillator;
#X obj 896 345 tabsend~;
#X text 996 345 - write one block continuously to a table;
#X obj 896 369 tabreceive~;
#X text 996 369 - read one block continuously from a table;
#X obj 893 442 delwrite~;
#X text 993 442 - write to a delay line;
#X obj 893 466 delread~;
#X text 993 466 - read from a delay line;
#X obj 893 492 delread4~;
#X text 1023 493 - read with a time-varying delay time;
#X obj 987 493 vd~;
#X obj 1336 151 vcf~;
#X text 1406 151 - voltage controlled filter;
#X obj 1336 175 noise~;
#X text 1406 175 - white noise generator;
#X obj 1336 199 env~;
#X text 1406 199 - envelope follower;
#X obj 1336 223 hip~;
#X text 1406 223 - high pass filter;
#X obj 1336 247 lop~;
#X text 1406 247 - low pass filter;
#X obj 1335 296 bp~;
#X text 1405 296 - band pass filter;
#X obj 1335 320 biquad~;
#X text 1405 320 - raw filter;
#X obj 1335 344 samphold~;
#X text 1405 344 - sample and hold unit;
#X obj 1335 368 print~;
#X text 1405 368 - print out one or more "blocks";
#X obj 1335 392 rpole~;
#X text 1405 392 - raw real-valued one-pole filter;
#X obj 1335 416 rzero~;
#X text 1405 416 - raw real-valued one-zero filter;
#X obj 1335 440 rzero_rev~;
#X text 1418 440 - time-reversed;
#X obj 1335 484 cpole~;
#X obj 1394 484 czero~;
#X text 1341 464 - corresponding complex-valued filters;
#X obj 1453 484 czero_rev~;
#X obj 1336 271 slop~;
#X text 1405 271 - slew-limiting (nonlinear) low pass filter;
