#N canvas 93 173 527 686 12;
#X declare;
#X obj 11 141 cnv 15 425 500 empty empty empty 10 12 0 14 -261234 -1
0;
#X obj 11 21 cnv 15 450 50 empty empty CONTROL-RATE-OBJECTS 10 24 0
36 -1 -262144 0;
#X obj 24 150 bang;
#X text 124 150 - output a bang message;
#X obj 24 174 float;
#X text 124 174 - store and recall a number;
#X obj 24 198 symbol;
#X text 124 198 - store and recall a symbol;
#X obj 24 222 int;
#X text 124 222 - store and recall an integer;
#X obj 24 246 send;
#X text 124 246 - send a message to a named object;
#X obj 24 270 receive;
#X text 124 270 - catch "sent" messages;
#X obj 24 294 select;
#X text 124 294 - test for matching numbers or symbols;
#X obj 24 318 route;
#X text 124 318 - route messages according to first element;
#X obj 24 342 pack;
#X text 124 342 - make compound messages;
#X obj 24 366 unpack;
#X text 124 366 - get elements of compound messages;
#X obj 24 390 trigger;
#X text 124 390 - sequence and convert messages;
#X obj 24 414 spigot;
#X text 124 414 - interruptible message connection;
#X obj 24 438 moses;
#X text 124 438 - part a numeric stream;
#X obj 24 462 until;
#X text 124 462 - looping mechanism;
#X obj 24 486 print;
#X text 124 486 - print out messages;
#X obj 24 510 makefilename;
#X text 145 511 - format a symbol with a variable field;
#X obj 24 534 change;
#X text 124 534 - remove repeated numbers from a stream;
#X obj 24 559 swap;
#X text 124 559 - swap two numbers;
#X obj 24 583 value;
#X text 124 583 - shared numeric value;
#X obj 24 607 list;
#X text 124 607 - manipulate lists;
#X obj 11 120 cnv 15 425 20 empty empty GENERAL 10 12 0 14 -1 -262144
0;
#X obj 451 141 cnv 15 425 300 empty empty empty 10 12 0 14 -261682
-1 0;
#X obj 451 120 cnv 15 425 20 empty empty MATH 10 12 0 14 -1 -262144
0;
#X text 652 175 - arithmetic;
#X text 653 198 - relational tests;
#X text 695 223 - bit twiddling;
#X obj 463 251 mtof;
#X obj 463 273 ftom;
#X obj 504 251 powtodb;
#X obj 572 250 rmstodb;
#X obj 504 272 dbtopow;
#X obj 572 272 dbtorms;
#X text 654 264 - convert acoustical units;
#X obj 462 296 mod;
#X obj 493 296 div;
#X obj 524 296 sin;
#X obj 555 296 cos;
#X obj 586 296 tan;
#X obj 462 318 atan;
#X obj 502 318 atan2;
#X obj 551 318 sqrt;
#X obj 591 318 log;
#X obj 622 318 exp;
#X obj 653 318 abs;
#X text 693 308 - higher math;
#X obj 462 340 random;
#X text 562 340 - lower math;
#X obj 462 363 max;
#X obj 494 363 min;
#X text 562 363 - greater or lesser of 2 numbers;
#X obj 462 386 clip;
#X text 562 386 - force a number into a range;
#X obj 462 199 ==;
#X obj 494 199 !=;
#X obj 526 199 >;
#X obj 558 199 <;
#X obj 589 199 >=;
#X obj 620 199 <=;
#X obj 494 176 -;
#X obj 527 176 *;
#X obj 559 176 /;
#X obj 592 176 pow;
#X obj 462 176 +;
#X obj 462 222 &;
#X obj 494 222 &&;
#X obj 526 222 |;
#X obj 558 222 ||;
#X obj 589 222 %;
#X obj 462 409 wrap;
#X text 561 409 - wrap a number to range [0 \, 1);
#X obj 620 222 <<;
#X obj 651 222 >>;
#X obj 463 146 expr;
#X text 563 144 - C-style expressions;
#X obj 451 471 cnv 15 425 180 empty empty empty 10 12 0 14 -262130
-1 0;
#X obj 451 450 cnv 15 425 20 empty empty TIME 10 12 0 14 -1 -262144
0;
#X obj 457 480 delay;
#X text 557 480 - send a message after a time delay;
#X obj 457 504 metro;
#X text 557 504 - send a message periodically;
#X obj 457 528 line;
#X text 557 528 - send a series of linearly stepped numbers;
#X obj 457 552 timer;
#X text 557 552 - measure time intervals;
#X obj 457 576 cputime;
#X text 557 576 - measure CPU time;
#X obj 457 600 realtime;
#X text 557 600 - measure real time;
#X obj 457 624 pipe;
#X text 557 624 - dynamically growable delay line for numbers;
#X obj 881 141 cnv 15 475 225 empty empty empty 10 12 0 14 -204786
-1 0;
#X obj 881 120 cnv 15 475 20 empty empty MIDI/OSC/FUDI 10 12 0 14 -1
-262144 0;
#X obj 891 401 cnv 15 425 180 empty empty empty 10 12 0 14 -204800
-1 0;
#X obj 891 380 cnv 15 425 20 empty empty ARRAYS/TABLE 10 12 0 14 -1
-262144 0;
#X obj 892 150 notein;
#X obj 951 150 ctlin;
#X obj 1002 150 pgmin;
#X obj 1052 150 bendin;
#X obj 1111 150 touchin;
#X obj 892 174 polytouchin;
#X obj 1180 149 midiin;
#X obj 991 174 sysexin;
#X text 1229 166 - MIDI input;
#X obj 891 206 noteout;
#X obj 959 206 ctlout;
#X obj 1019 206 pgmout;
#X obj 1078 206 bendout;
#X obj 891 228 touchout;
#X obj 969 228 polytouchout;
#X obj 1082 228 midiout;
#X text 1160 216 - MIDI output;
#X obj 891 259 makenote;
#X obj 891 283 stripnote;
#X text 963 285 - strip "note off" messages;
#X text 961 257 - schedule delayed "note off" message for a note-on
;
#X obj 891 310 oscparse;
#X obj 965 310 oscformat;
#X obj 1063 175 midirealtimein;
#X text 1049 310 - OSC messages to and from Pd lists;
#X obj 890 336 fudiparse;
#X obj 969 336 fudiformat;
#X text 1065 338 - FUDI messages to and from Pd lists;
#X obj 901 410 tabread;
#X text 1001 410 - read a number from a table;
#X obj 901 433 tabread4;
#X text 1001 433 - read a number from a table;
#X obj 901 456 tabwrite;
#X text 1001 456 - write a number to a table;
#X obj 901 480 soundfiler;
#X text 1001 480 - read and write tables to soundfiles;
#X obj 901 504 table;
#X obj 901 528 array;
#X text 1003 503 - create a named table;
#X text 1004 530 - general array creation and manipulation;
#X text 16 73 Right-Click a blank space and Left-Click "Help" for the
full list of objects.;
#X obj 1371 141 cnv 15 425 500 empty empty empty 10 12 0 14 -203904
-1 0;
#X obj 1371 120 cnv 15 425 20 empty empty MISC 10 12 0 14 -1 -262144
0;
#X obj 1384 150 loadbang;
#X text 1484 150 - bang on load;
#X obj 1383 250 netsend;
#X text 1483 250 - send messages over the internet;
#X obj 1383 273 netreceive;
#X text 1483 273 - receive them;
#X obj 1383 305 qlist;
#X text 1483 305 - message sequencer;
#X text 1483 329 - file to message converter;
#X obj 1383 382 openpanel;
#X text 1483 382 - "Open" dialog;
#X obj 1383 405 savepanel;
#X text 1483 405 - "Save as" dialog;
#X obj 1384 433 bag;
#X text 1484 433 - set of numbers;
#X obj 1384 457 poly;
#X text 1484 457 - polyphonic voice allocation;
#X obj 1384 486 key;
#X obj 1418 486 keyup;
#X text 1484 486 - numeric key values from keyboard;
#X obj 1384 509 keyname;
#X text 1484 509 - symbolic key name;
#X obj 1384 174 declare;
#X text 1484 174 - set search path and/or load libraries;
#X text 1483 353 - general text handling;
#X obj 1383 329 textfile;
#X obj 1383 353 text;
#X obj 1384 197 savestate;
#X text 1484 197 - mechanism for saving state of an abstraction;
#X obj 1384 220 pdcontrol;
#X text 1484 220 - communicate with canvas (for example \, to get directory)
;
