#N canvas 457 125 823 545 12;
#X obj 12 109 unpack f f;
#X obj 159 123 sel 127;
#X obj 12 67 r \$0-key;
#N canvas 608 147 187 121 keyboard 0;
#N canvas 4 23 491 309 z-m 0;
#X obj 32 120 t b b;
#X msg 51 142 stop;
#X obj 51 164 del 50;
#X msg 51 186 0;
#X obj 32 208 change;
#X obj 32 32 key;
#X obj 32 76 keyup;
#X obj 32 98 sel 122;
#X obj 32 54 sel 122;
#X obj 92 120 t b b;
#X msg 111 142 stop;
#X obj 111 164 del 50;
#X msg 111 186 0;
#X obj 92 208 change;
#X obj 92 32 key;
#X obj 92 76 keyup;
#X obj 152 120 t b b;
#X msg 171 142 stop;
#X obj 171 164 del 50;
#X msg 171 186 0;
#X obj 152 208 change;
#X obj 152 32 key;
#X obj 152 76 keyup;
#X obj 212 120 t b b;
#X msg 231 142 stop;
#X obj 231 164 del 50;
#X msg 231 186 0;
#X obj 212 208 change;
#X obj 212 32 key;
#X obj 212 76 keyup;
#X obj 92 98 sel 120;
#X obj 92 54 sel 120;
#X obj 152 98 sel 99;
#X obj 152 54 sel 99;
#X obj 212 98 sel 118;
#X obj 212 54 sel 118;
#X msg 32 230 1 \$1;
#X obj 272 120 t b b;
#X msg 291 142 stop;
#X obj 291 164 del 50;
#X msg 291 186 0;
#X obj 272 208 change;
#X obj 272 32 key;
#X obj 272 76 keyup;
#X obj 272 98 sel 98;
#X obj 272 54 sel 98;
#X obj 332 120 t b b;
#X msg 351 142 stop;
#X obj 351 164 del 50;
#X msg 351 186 0;
#X obj 332 208 change;
#X obj 332 32 key;
#X obj 332 76 keyup;
#X obj 332 98 sel 110;
#X obj 332 54 sel 110;
#X obj 392 120 t b b;
#X msg 411 142 stop;
#X obj 411 164 del 50;
#X msg 411 186 0;
#X obj 392 208 change;
#X obj 392 32 key;
#X obj 392 76 keyup;
#X obj 392 98 sel 109;
#X obj 392 54 sel 109;
#X msg 92 230 2 \$1;
#X msg 152 230 3 \$1;
#X msg 212 230 4 \$1;
#X msg 272 230 5 \$1;
#X msg 332 230 6 \$1;
#X msg 392 230 7 \$1;
#X msg 32 186 127;
#X msg 92 186 127;
#X msg 152 186 127;
#X msg 212 186 127;
#X msg 272 186 127;
#X msg 332 186 127;
#X msg 392 186 127;
#X obj 32 252 s \$0-key;
#X obj 92 252 s \$0-key;
#X obj 152 252 s \$0-key;
#X obj 212 252 s \$0-key;
#X obj 272 252 s \$0-key;
#X obj 332 252 s \$0-key;
#X obj 392 252 s \$0-key;
#X connect 0 0 70 0;
#X connect 0 1 1 0;
#X connect 1 0 2 0;
#X connect 2 0 3 0;
#X connect 3 0 4 0;
#X connect 4 0 36 0;
#X connect 5 0 8 0;
#X connect 6 0 7 0;
#X connect 7 0 2 0;
#X connect 8 0 0 0;
#X connect 9 0 71 0;
#X connect 9 1 10 0;
#X connect 10 0 11 0;
#X connect 11 0 12 0;
#X connect 12 0 13 0;
#X connect 13 0 64 0;
#X connect 14 0 31 0;
#X connect 15 0 30 0;
#X connect 16 0 72 0;
#X connect 16 1 17 0;
#X connect 17 0 18 0;
#X connect 18 0 19 0;
#X connect 19 0 20 0;
#X connect 20 0 65 0;
#X connect 21 0 33 0;
#X connect 22 0 32 0;
#X connect 23 0 73 0;
#X connect 23 1 24 0;
#X connect 24 0 25 0;
#X connect 25 0 26 0;
#X connect 26 0 27 0;
#X connect 27 0 66 0;
#X connect 28 0 35 0;
#X connect 29 0 34 0;
#X connect 30 0 11 0;
#X connect 31 0 9 0;
#X connect 32 0 18 0;
#X connect 33 0 16 0;
#X connect 34 0 25 0;
#X connect 35 0 23 0;
#X connect 36 0 77 0;
#X connect 37 0 74 0;
#X connect 37 1 38 0;
#X connect 38 0 39 0;
#X connect 39 0 40 0;
#X connect 40 0 41 0;
#X connect 41 0 67 0;
#X connect 42 0 45 0;
#X connect 43 0 44 0;
#X connect 44 0 39 0;
#X connect 45 0 37 0;
#X connect 46 0 75 0;
#X connect 46 1 47 0;
#X connect 47 0 48 0;
#X connect 48 0 49 0;
#X connect 49 0 50 0;
#X connect 50 0 68 0;
#X connect 51 0 54 0;
#X connect 52 0 53 0;
#X connect 53 0 48 0;
#X connect 54 0 46 0;
#X connect 55 0 76 0;
#X connect 55 1 56 0;
#X connect 56 0 57 0;
#X connect 57 0 58 0;
#X connect 58 0 59 0;
#X connect 59 0 69 0;
#X connect 60 0 63 0;
#X connect 61 0 62 0;
#X connect 62 0 57 0;
#X connect 63 0 55 0;
#X connect 64 0 78 0;
#X connect 65 0 79 0;
#X connect 66 0 80 0;
#X connect 67 0 81 0;
#X connect 68 0 82 0;
#X connect 69 0 83 0;
#X connect 70 0 4 0;
#X connect 71 0 13 0;
#X connect 72 0 20 0;
#X connect 73 0 27 0;
#X connect 74 0 41 0;
#X connect 75 0 50 0;
#X connect 76 0 59 0;
#X restore 12 72 pd z-m;
#N canvas 4 23 718 321 a-ñ 0;
#X obj 32 120 t b b;
#X msg 51 142 stop;
#X obj 51 164 del 50;
#X msg 51 186 0;
#X obj 32 208 change;
#X obj 32 32 key;
#X obj 32 76 keyup;
#X obj 92 120 t b b;
#X msg 111 142 stop;
#X obj 111 164 del 50;
#X msg 111 186 0;
#X obj 92 208 change;
#X obj 92 32 key;
#X obj 92 76 keyup;
#X obj 152 120 t b b;
#X msg 171 142 stop;
#X obj 171 164 del 50;
#X msg 171 186 0;
#X obj 152 208 change;
#X obj 152 32 key;
#X obj 152 76 keyup;
#X obj 212 120 t b b;
#X msg 231 142 stop;
#X obj 231 164 del 50;
#X msg 231 186 0;
#X obj 212 208 change;
#X obj 212 32 key;
#X obj 212 76 keyup;
#X obj 272 120 t b b;
#X msg 291 142 stop;
#X obj 291 164 del 50;
#X msg 291 186 0;
#X obj 272 208 change;
#X obj 272 32 key;
#X obj 272 76 keyup;
#X obj 332 120 t b b;
#X msg 351 142 stop;
#X obj 351 164 del 50;
#X msg 351 186 0;
#X obj 332 208 change;
#X obj 332 32 key;
#X obj 332 76 keyup;
#X obj 392 120 t b b;
#X msg 411 142 stop;
#X obj 411 164 del 50;
#X msg 411 186 0;
#X obj 392 208 change;
#X obj 392 32 key;
#X obj 392 76 keyup;
#X obj 32 54 sel 97;
#X obj 32 98 sel 97;
#X obj 92 54 sel 115;
#X obj 152 54 sel 100;
#X obj 212 54 sel 102;
#X obj 272 54 sel 103;
#X obj 332 54 sel 104;
#X obj 392 54 sel 106;
#X obj 452 120 t b b;
#X msg 471 142 stop;
#X obj 471 164 del 50;
#X msg 471 186 0;
#X obj 452 208 change;
#X obj 452 32 key;
#X obj 452 76 keyup;
#X obj 512 120 t b b;
#X msg 531 142 stop;
#X obj 531 164 del 50;
#X msg 531 186 0;
#X obj 512 208 change;
#X obj 512 32 key;
#X obj 512 76 keyup;
#X obj 512 54 sel 108;
#X obj 452 54 sel 107;
#X obj 572 120 t b b;
#X msg 591 142 stop;
#X obj 591 164 del 50;
#X msg 591 186 0;
#X obj 572 208 change;
#X obj 572 32 key;
#X obj 572 76 keyup;
#X obj 572 54 sel 241;
#X obj 92 98 sel 115;
#X obj 152 98 sel 100;
#X obj 212 98 sel 102;
#X obj 272 98 sel 103;
#X obj 332 98 sel 104;
#X obj 392 98 sel 106;
#X obj 452 98 sel 107;
#X obj 512 98 sel 108;
#X obj 572 98 sel 241;
#X msg 32 230 8 \$1;
#X msg 92 230 9 \$1;
#X msg 152 230 10 \$1;
#X msg 212 230 11 \$1;
#X msg 272 230 12 \$1;
#X msg 332 230 13 \$1;
#X msg 392 230 14 \$1;
#X msg 452 230 15 \$1;
#X msg 512 230 16 \$1;
#X msg 572 230 17 \$1;
#X msg 32 186 127;
#X msg 92 186 127;
#X msg 152 186 127;
#X msg 212 186 127;
#X msg 272 186 127;
#X msg 332 186 127;
#X msg 392 186 127;
#X msg 452 186 127;
#X msg 512 186 127;
#X msg 572 186 127;
#X obj 32 252 s \$0-key;
#X obj 92 252 s \$0-key;
#X obj 152 252 s \$0-key;
#X obj 212 252 s \$0-key;
#X obj 272 252 s \$0-key;
#X obj 332 252 s \$0-key;
#X obj 392 252 s \$0-key;
#X obj 452 252 s \$0-key;
#X obj 512 252 s \$0-key;
#X obj 572 252 s \$0-key;
#X connect 0 0 100 0;
#X connect 0 1 1 0;
#X connect 1 0 2 0;
#X connect 2 0 3 0;
#X connect 3 0 4 0;
#X connect 4 0 90 0;
#X connect 5 0 49 0;
#X connect 6 0 50 0;
#X connect 7 0 101 0;
#X connect 7 1 8 0;
#X connect 8 0 9 0;
#X connect 9 0 10 0;
#X connect 10 0 11 0;
#X connect 11 0 91 0;
#X connect 12 0 51 0;
#X connect 13 0 81 0;
#X connect 14 0 102 0;
#X connect 14 1 15 0;
#X connect 15 0 16 0;
#X connect 16 0 17 0;
#X connect 17 0 18 0;
#X connect 18 0 92 0;
#X connect 19 0 52 0;
#X connect 20 0 82 0;
#X connect 21 0 103 0;
#X connect 21 1 22 0;
#X connect 22 0 23 0;
#X connect 23 0 24 0;
#X connect 24 0 25 0;
#X connect 25 0 93 0;
#X connect 26 0 53 0;
#X connect 27 0 83 0;
#X connect 28 0 104 0;
#X connect 28 1 29 0;
#X connect 29 0 30 0;
#X connect 30 0 31 0;
#X connect 31 0 32 0;
#X connect 32 0 94 0;
#X connect 33 0 54 0;
#X connect 34 0 84 0;
#X connect 35 0 105 0;
#X connect 35 1 36 0;
#X connect 36 0 37 0;
#X connect 37 0 38 0;
#X connect 38 0 39 0;
#X connect 39 0 95 0;
#X connect 40 0 55 0;
#X connect 41 0 85 0;
#X connect 42 0 106 0;
#X connect 42 1 43 0;
#X connect 43 0 44 0;
#X connect 44 0 45 0;
#X connect 45 0 46 0;
#X connect 46 0 96 0;
#X connect 47 0 56 0;
#X connect 48 0 86 0;
#X connect 49 0 0 0;
#X connect 50 0 2 0;
#X connect 51 0 7 0;
#X connect 52 0 14 0;
#X connect 53 0 21 0;
#X connect 54 0 28 0;
#X connect 55 0 35 0;
#X connect 56 0 42 0;
#X connect 57 0 107 0;
#X connect 57 1 58 0;
#X connect 58 0 59 0;
#X connect 59 0 60 0;
#X connect 60 0 61 0;
#X connect 61 0 97 0;
#X connect 62 0 72 0;
#X connect 63 0 87 0;
#X connect 64 0 108 0;
#X connect 64 1 65 0;
#X connect 65 0 66 0;
#X connect 66 0 67 0;
#X connect 67 0 68 0;
#X connect 68 0 98 0;
#X connect 69 0 71 0;
#X connect 70 0 88 0;
#X connect 71 0 64 0;
#X connect 72 0 57 0;
#X connect 73 0 109 0;
#X connect 73 1 74 0;
#X connect 74 0 75 0;
#X connect 75 0 76 0;
#X connect 76 0 77 0;
#X connect 77 0 99 0;
#X connect 78 0 80 0;
#X connect 79 0 89 0;
#X connect 80 0 73 0;
#X connect 81 0 9 0;
#X connect 82 0 16 0;
#X connect 83 0 23 0;
#X connect 84 0 30 0;
#X connect 85 0 37 0;
#X connect 86 0 44 0;
#X connect 87 0 59 0;
#X connect 88 0 66 0;
#X connect 89 0 75 0;
#X connect 90 0 110 0;
#X connect 91 0 111 0;
#X connect 92 0 112 0;
#X connect 93 0 113 0;
#X connect 94 0 114 0;
#X connect 95 0 115 0;
#X connect 96 0 116 0;
#X connect 97 0 117 0;
#X connect 98 0 118 0;
#X connect 99 0 119 0;
#X connect 100 0 4 0;
#X connect 101 0 11 0;
#X connect 102 0 18 0;
#X connect 103 0 25 0;
#X connect 104 0 32 0;
#X connect 105 0 39 0;
#X connect 106 0 46 0;
#X connect 107 0 61 0;
#X connect 108 0 68 0;
#X connect 109 0 77 0;
#X restore 12 52 pd a-ñ;
#N canvas 406 303 718 321 q-p 0;
#X obj 32 120 t b b;
#X msg 51 142 stop;
#X obj 51 164 del 50;
#X msg 51 186 0;
#X obj 32 208 change;
#X obj 32 32 key;
#X obj 32 76 keyup;
#X obj 92 120 t b b;
#X msg 111 142 stop;
#X obj 111 164 del 50;
#X msg 111 186 0;
#X obj 92 208 change;
#X obj 92 32 key;
#X obj 92 76 keyup;
#X obj 152 120 t b b;
#X msg 171 142 stop;
#X obj 171 164 del 50;
#X msg 171 186 0;
#X obj 152 208 change;
#X obj 152 32 key;
#X obj 152 76 keyup;
#X obj 212 120 t b b;
#X msg 231 142 stop;
#X obj 231 164 del 50;
#X msg 231 186 0;
#X obj 212 208 change;
#X obj 212 32 key;
#X obj 212 76 keyup;
#X obj 272 120 t b b;
#X msg 291 142 stop;
#X obj 291 164 del 50;
#X msg 291 186 0;
#X obj 272 208 change;
#X obj 272 32 key;
#X obj 272 76 keyup;
#X obj 332 120 t b b;
#X msg 351 142 stop;
#X obj 351 164 del 50;
#X msg 351 186 0;
#X obj 332 208 change;
#X obj 332 32 key;
#X obj 332 76 keyup;
#X obj 392 120 t b b;
#X msg 411 142 stop;
#X obj 411 164 del 50;
#X msg 411 186 0;
#X obj 392 208 change;
#X obj 392 32 key;
#X obj 392 76 keyup;
#X obj 452 120 t b b;
#X msg 471 142 stop;
#X obj 471 164 del 50;
#X msg 471 186 0;
#X obj 452 208 change;
#X obj 452 32 key;
#X obj 452 76 keyup;
#X obj 512 120 t b b;
#X msg 531 142 stop;
#X obj 531 164 del 50;
#X msg 531 186 0;
#X obj 512 208 change;
#X obj 512 32 key;
#X obj 512 76 keyup;
#X obj 572 120 t b b;
#X msg 591 142 stop;
#X obj 591 164 del 50;
#X msg 591 186 0;
#X obj 572 208 change;
#X obj 572 32 key;
#X obj 572 76 keyup;
#X obj 32 54 sel 113;
#X obj 92 54 sel 119;
#X obj 152 54 sel 101;
#X obj 212 54 sel 114;
#X obj 272 54 sel 116;
#X obj 332 54 sel 121;
#X obj 392 54 sel 117;
#X obj 452 54 sel 105;
#X obj 512 54 sel 111;
#X obj 572 54 sel 112;
#X obj 32 98 sel 113;
#X obj 92 98 sel 119;
#X obj 152 98 sel 101;
#X obj 212 98 sel 114;
#X obj 272 98 sel 116;
#X obj 332 98 sel 121;
#X obj 392 98 sel 117;
#X obj 452 98 sel 105;
#X obj 512 98 sel 111;
#X obj 572 98 sel 112;
#X msg 32 230 18 \$1;
#X msg 92 230 19 \$1;
#X msg 152 230 20 \$1;
#X msg 212 230 21 \$1;
#X msg 272 230 22 \$1;
#X msg 332 230 23 \$1;
#X msg 392 230 24 \$1;
#X msg 452 230 25 \$1;
#X msg 512 230 26 \$1;
#X msg 572 230 27 \$1;
#X msg 32 186 127;
#X msg 92 186 127;
#X msg 152 186 127;
#X msg 212 186 127;
#X msg 272 186 127;
#X msg 332 186 127;
#X msg 392 186 127;
#X msg 452 186 127;
#X msg 512 186 127;
#X msg 572 186 127;
#X obj 32 252 s \$0-key;
#X obj 92 252 s \$0-key;
#X obj 152 252 s \$0-key;
#X obj 212 252 s \$0-key;
#X obj 272 252 s \$0-key;
#X obj 332 252 s \$0-key;
#X obj 392 252 s \$0-key;
#X obj 452 252 s \$0-key;
#X obj 512 252 s \$0-key;
#X obj 572 252 s \$0-key;
#X connect 0 0 100 0;
#X connect 0 1 1 0;
#X connect 1 0 2 0;
#X connect 2 0 3 0;
#X connect 3 0 4 0;
#X connect 4 0 90 0;
#X connect 5 0 70 0;
#X connect 6 0 80 0;
#X connect 7 0 101 0;
#X connect 7 1 8 0;
#X connect 8 0 9 0;
#X connect 9 0 10 0;
#X connect 10 0 11 0;
#X connect 11 0 91 0;
#X connect 12 0 71 0;
#X connect 13 0 81 0;
#X connect 14 0 102 0;
#X connect 14 1 15 0;
#X connect 15 0 16 0;
#X connect 16 0 17 0;
#X connect 17 0 18 0;
#X connect 18 0 92 0;
#X connect 19 0 72 0;
#X connect 20 0 82 0;
#X connect 21 0 103 0;
#X connect 21 1 22 0;
#X connect 22 0 23 0;
#X connect 23 0 24 0;
#X connect 24 0 25 0;
#X connect 25 0 93 0;
#X connect 26 0 73 0;
#X connect 27 0 83 0;
#X connect 28 0 104 0;
#X connect 28 1 29 0;
#X connect 29 0 30 0;
#X connect 30 0 31 0;
#X connect 31 0 32 0;
#X connect 32 0 94 0;
#X connect 33 0 74 0;
#X connect 34 0 84 0;
#X connect 35 0 105 0;
#X connect 35 1 36 0;
#X connect 36 0 37 0;
#X connect 37 0 38 0;
#X connect 38 0 39 0;
#X connect 39 0 95 0;
#X connect 40 0 75 0;
#X connect 41 0 85 0;
#X connect 42 0 106 0;
#X connect 42 1 43 0;
#X connect 43 0 44 0;
#X connect 44 0 45 0;
#X connect 45 0 46 0;
#X connect 46 0 96 0;
#X connect 47 0 76 0;
#X connect 48 0 86 0;
#X connect 49 0 107 0;
#X connect 49 1 50 0;
#X connect 50 0 51 0;
#X connect 51 0 52 0;
#X connect 52 0 53 0;
#X connect 53 0 97 0;
#X connect 54 0 77 0;
#X connect 55 0 87 0;
#X connect 56 0 108 0;
#X connect 56 1 57 0;
#X connect 57 0 58 0;
#X connect 58 0 59 0;
#X connect 59 0 60 0;
#X connect 60 0 98 0;
#X connect 61 0 78 0;
#X connect 62 0 88 0;
#X connect 63 0 109 0;
#X connect 63 1 64 0;
#X connect 64 0 65 0;
#X connect 65 0 66 0;
#X connect 66 0 67 0;
#X connect 67 0 99 0;
#X connect 68 0 79 0;
#X connect 69 0 89 0;
#X connect 70 0 0 0;
#X connect 71 0 7 0;
#X connect 72 0 14 0;
#X connect 73 0 21 0;
#X connect 74 0 28 0;
#X connect 75 0 35 0;
#X connect 76 0 42 0;
#X connect 77 0 49 0;
#X connect 78 0 56 0;
#X connect 79 0 63 0;
#X connect 80 0 2 0;
#X connect 81 0 9 0;
#X connect 82 0 16 0;
#X connect 83 0 23 0;
#X connect 84 0 30 0;
#X connect 85 0 37 0;
#X connect 86 0 44 0;
#X connect 87 0 51 0;
#X connect 88 0 58 0;
#X connect 89 0 65 0;
#X connect 90 0 110 0;
#X connect 91 0 111 0;
#X connect 92 0 112 0;
#X connect 93 0 113 0;
#X connect 94 0 114 0;
#X connect 95 0 115 0;
#X connect 96 0 116 0;
#X connect 97 0 117 0;
#X connect 98 0 118 0;
#X connect 99 0 119 0;
#X connect 100 0 4 0;
#X connect 101 0 11 0;
#X connect 102 0 18 0;
#X connect 103 0 25 0;
#X connect 104 0 32 0;
#X connect 105 0 39 0;
#X connect 106 0 46 0;
#X connect 107 0 53 0;
#X connect 108 0 60 0;
#X connect 109 0 67 0;
#X restore 12 32 pd q-p;
#N canvas 4 23 718 321 1-0 0;
#X obj 32 120 t b b;
#X msg 51 142 stop;
#X obj 51 164 del 50;
#X msg 51 186 0;
#X obj 32 208 change;
#X obj 32 32 key;
#X obj 32 76 keyup;
#X obj 92 120 t b b;
#X msg 111 142 stop;
#X obj 111 164 del 50;
#X msg 111 186 0;
#X obj 92 208 change;
#X obj 92 32 key;
#X obj 92 76 keyup;
#X obj 152 120 t b b;
#X msg 171 142 stop;
#X obj 171 164 del 50;
#X msg 171 186 0;
#X obj 152 208 change;
#X obj 152 32 key;
#X obj 152 76 keyup;
#X obj 212 120 t b b;
#X msg 231 142 stop;
#X obj 231 164 del 50;
#X msg 231 186 0;
#X obj 212 208 change;
#X obj 212 32 key;
#X obj 212 76 keyup;
#X obj 272 120 t b b;
#X msg 291 142 stop;
#X obj 291 164 del 50;
#X msg 291 186 0;
#X obj 272 208 change;
#X obj 272 32 key;
#X obj 272 76 keyup;
#X obj 332 120 t b b;
#X msg 351 142 stop;
#X obj 351 164 del 50;
#X msg 351 186 0;
#X obj 332 208 change;
#X obj 332 32 key;
#X obj 332 76 keyup;
#X obj 392 120 t b b;
#X msg 411 142 stop;
#X obj 411 164 del 50;
#X msg 411 186 0;
#X obj 392 208 change;
#X obj 392 32 key;
#X obj 392 76 keyup;
#X obj 452 120 t b b;
#X msg 471 142 stop;
#X obj 471 164 del 50;
#X msg 471 186 0;
#X obj 452 208 change;
#X obj 452 32 key;
#X obj 452 76 keyup;
#X obj 512 120 t b b;
#X msg 531 142 stop;
#X obj 531 164 del 50;
#X msg 531 186 0;
#X obj 512 208 change;
#X obj 512 32 key;
#X obj 512 76 keyup;
#X obj 572 120 t b b;
#X msg 591 142 stop;
#X obj 591 164 del 50;
#X msg 591 186 0;
#X obj 572 208 change;
#X obj 572 32 key;
#X obj 572 76 keyup;
#X obj 32 54 sel 49;
#X obj 92 54 sel 50;
#X obj 152 54 sel 51;
#X obj 212 54 sel 52;
#X obj 272 54 sel 53;
#X obj 332 54 sel 54;
#X obj 392 54 sel 55;
#X obj 452 54 sel 56;
#X obj 512 54 sel 57;
#X obj 572 54 sel 48;
#X obj 32 98 sel 49;
#X obj 92 98 sel 50;
#X obj 152 98 sel 51;
#X obj 212 98 sel 52;
#X obj 272 98 sel 53;
#X obj 332 98 sel 54;
#X obj 392 98 sel 55;
#X obj 452 98 sel 56;
#X obj 512 98 sel 57;
#X obj 572 98 sel 48;
#X msg 32 230 28 \$1;
#X msg 92 230 29 \$1;
#X msg 152 230 30 \$1;
#X msg 212 230 31 \$1;
#X msg 272 230 32 \$1;
#X msg 332 230 33 \$1;
#X msg 392 230 34 \$1;
#X msg 452 230 35 \$1;
#X msg 512 230 36 \$1;
#X msg 572 230 37 \$1;
#X msg 32 186 127;
#X msg 92 186 127;
#X msg 152 186 127;
#X msg 212 186 127;
#X msg 272 186 127;
#X msg 332 186 127;
#X msg 392 186 127;
#X msg 452 186 127;
#X msg 512 186 127;
#X msg 572 186 127;
#X obj 32 252 s \$0-key;
#X obj 92 252 s \$0-key;
#X obj 152 252 s \$0-key;
#X obj 212 252 s \$0-key;
#X obj 272 252 s \$0-key;
#X obj 332 252 s \$0-key;
#X obj 392 252 s \$0-key;
#X obj 452 252 s \$0-key;
#X obj 512 252 s \$0-key;
#X obj 572 252 s \$0-key;
#X connect 0 0 100 0;
#X connect 0 1 1 0;
#X connect 1 0 2 0;
#X connect 2 0 3 0;
#X connect 3 0 4 0;
#X connect 4 0 90 0;
#X connect 5 0 70 0;
#X connect 6 0 80 0;
#X connect 7 0 101 0;
#X connect 7 1 8 0;
#X connect 8 0 9 0;
#X connect 9 0 10 0;
#X connect 10 0 11 0;
#X connect 11 0 91 0;
#X connect 12 0 71 0;
#X connect 13 0 81 0;
#X connect 14 0 102 0;
#X connect 14 1 15 0;
#X connect 15 0 16 0;
#X connect 16 0 17 0;
#X connect 17 0 18 0;
#X connect 18 0 92 0;
#X connect 19 0 72 0;
#X connect 20 0 82 0;
#X connect 21 0 103 0;
#X connect 21 1 22 0;
#X connect 22 0 23 0;
#X connect 23 0 24 0;
#X connect 24 0 25 0;
#X connect 25 0 93 0;
#X connect 26 0 73 0;
#X connect 27 0 83 0;
#X connect 28 0 104 0;
#X connect 28 1 29 0;
#X connect 29 0 30 0;
#X connect 30 0 31 0;
#X connect 31 0 32 0;
#X connect 32 0 94 0;
#X connect 33 0 74 0;
#X connect 34 0 84 0;
#X connect 35 0 105 0;
#X connect 35 1 36 0;
#X connect 36 0 37 0;
#X connect 37 0 38 0;
#X connect 38 0 39 0;
#X connect 39 0 95 0;
#X connect 40 0 75 0;
#X connect 41 0 85 0;
#X connect 42 0 106 0;
#X connect 42 1 43 0;
#X connect 43 0 44 0;
#X connect 44 0 45 0;
#X connect 45 0 46 0;
#X connect 46 0 96 0;
#X connect 47 0 76 0;
#X connect 48 0 86 0;
#X connect 49 0 107 0;
#X connect 49 1 50 0;
#X connect 50 0 51 0;
#X connect 51 0 52 0;
#X connect 52 0 53 0;
#X connect 53 0 97 0;
#X connect 54 0 77 0;
#X connect 55 0 87 0;
#X connect 56 0 108 0;
#X connect 56 1 57 0;
#X connect 57 0 58 0;
#X connect 58 0 59 0;
#X connect 59 0 60 0;
#X connect 60 0 98 0;
#X connect 61 0 78 0;
#X connect 62 0 88 0;
#X connect 63 0 109 0;
#X connect 63 1 64 0;
#X connect 64 0 65 0;
#X connect 65 0 66 0;
#X connect 66 0 67 0;
#X connect 67 0 99 0;
#X connect 68 0 79 0;
#X connect 69 0 89 0;
#X connect 70 0 0 0;
#X connect 71 0 7 0;
#X connect 72 0 14 0;
#X connect 73 0 21 0;
#X connect 74 0 28 0;
#X connect 75 0 35 0;
#X connect 76 0 42 0;
#X connect 77 0 49 0;
#X connect 78 0 56 0;
#X connect 79 0 63 0;
#X connect 80 0 2 0;
#X connect 81 0 9 0;
#X connect 82 0 16 0;
#X connect 83 0 23 0;
#X connect 84 0 30 0;
#X connect 85 0 37 0;
#X connect 86 0 44 0;
#X connect 87 0 51 0;
#X connect 88 0 58 0;
#X connect 89 0 65 0;
#X connect 90 0 110 0;
#X connect 91 0 111 0;
#X connect 92 0 112 0;
#X connect 93 0 113 0;
#X connect 94 0 114 0;
#X connect 95 0 115 0;
#X connect 96 0 116 0;
#X connect 97 0 117 0;
#X connect 98 0 118 0;
#X connect 99 0 119 0;
#X connect 100 0 4 0;
#X connect 101 0 11 0;
#X connect 102 0 18 0;
#X connect 103 0 25 0;
#X connect 104 0 32 0;
#X connect 105 0 39 0;
#X connect 106 0 46 0;
#X connect 107 0 53 0;
#X connect 108 0 60 0;
#X connect 109 0 67 0;
#X restore 12 12 pd 1-0;
#X restore 12 47 pd keyboard;
#X obj 12 88 spigot;
#X obj 74 73 tgl 17 0 empty empty KEYBOARD 20 8 0 10 -262144 -1 -1
0 1;
#X msg 159 147 127;
#X obj 12 133 * 2;
#X obj 12 157 outlet;
#X obj 159 171 outlet;
#X connect 0 0 7 0;
#X connect 0 1 1 0;
#X connect 1 0 6 0;
#X connect 1 1 9 0;
#X connect 2 0 4 0;
#X connect 4 0 0 0;
#X connect 5 0 4 1;
#X connect 6 0 9 0;
#X connect 7 0 8 0;
