#N canvas 241 25 970 557 12;
#X obj 140 18 osc~ 0.05;
#X obj 140 43 *~ 10;
#X obj 230 43 *~ 10;
#X obj 140 68 +~ 11;
#X obj 230 68 +~ 21;
#X obj 230 18 osc~ 0.08;
#X obj 320 43 *~ 10;
#X obj 410 43 *~ 10;
#X obj 320 18 osc~ 0.13;
#X obj 320 68 +~ 13;
#X obj 410 18 osc~ 0.21;
#X obj 410 68 +~ 34;
#X obj 500 43 *~ 10;
#X obj 500 68 +~ 55;
#X obj 500 18 osc~ 0.03;
#X obj 590 68 +~ 87;
#X obj 590 18 osc~ 0.015;
#X obj 690 18 osc~ 0.12;
#X obj 690 68 +~ 67;
#X obj 690 43 *~ 5;
#X obj 590 43 *~ 15;
#X obj 19 306 delwrite~ \$0-chorus 1000;
#X obj 140 96 vd~ \$0-chorus;
#X obj 230 96 vd~ \$0-chorus;
#X obj 320 96 vd~ \$0-chorus;
#X obj 410 96 vd~ \$0-chorus;
#X obj 500 96 vd~ \$0-chorus;
#X obj 590 96 vd~ \$0-chorus;
#X obj 690 96 vd~ \$0-chorus;
#X obj 360 227 /~ 7;
#X obj 17 222 inlet~;
#X obj 197 283 +~;
#X obj 197 304 /~ 2;
#X obj 197 325 outlet~;
#X connect 0 0 1 0;
#X connect 1 0 3 0;
#X connect 2 0 4 0;
#X connect 3 0 22 0;
#X connect 4 0 23 0;
#X connect 5 0 2 0;
#X connect 6 0 9 0;
#X connect 7 0 11 0;
#X connect 8 0 6 0;
#X connect 9 0 24 0;
#X connect 10 0 7 0;
#X connect 11 0 25 0;
#X connect 12 0 13 0;
#X connect 13 0 26 0;
#X connect 14 0 12 0;
#X connect 15 0 27 0;
#X connect 16 0 20 0;
#X connect 17 0 19 0;
#X connect 18 0 28 0;
#X connect 19 0 18 0;
#X connect 20 0 15 0;
#X connect 22 0 29 0;
#X connect 23 0 29 0;
#X connect 24 0 29 0;
#X connect 25 0 29 0;
#X connect 26 0 29 0;
#X connect 27 0 29 0;
#X connect 28 0 29 0;
#X connect 29 0 31 1;
#X connect 30 0 21 0;
#X connect 30 0 31 0;
#X connect 31 0 32 0;
#X connect 32 0 33 0;
