#N canvas 169 55 1070 472 12;
#X obj 453 -27 vsl 19 128 127 0 0 1 empty empty 16' 0 -12 0 17 -1 -262144
-1 12700 1;
#X obj 503 -27 vsl 19 128 127 0 0 1 empty empty 8' 0 -12 0 17 -262144
-1 -1 0 1;
#X obj 553 -27 vsl 19 128 127 0 0 1 empty empty 5(1/3)' -5 -12 0 11
-1 -262144 -1 6800 1;
#X obj 603 -27 vsl 19 128 127 0 0 1 empty empty 4' 0 -12 0 17 -262144
-1 -1 6700 1;
#X obj 653 -27 vsl 19 128 127 0 0 1 empty empty 2(2/3)' -5 -12 0 11
-1 -262144 -1 5500 1;
#X obj 703 -27 vsl 19 128 127 0 0 1 empty empty 2' 0 -12 0 17 -262144
-1 -1 9000 1;
#X obj 753 -27 vsl 19 128 127 0 0 1 empty empty 1(3/5)' -5 -12 0 11
-1 -262144 -1 7600 1;
#X obj 803 -27 vsl 19 128 127 0 0 1 empty empty 1(1/3)' -5 -12 0 11
-1 -262144 -1 6200 1;
#X obj 853 -27 vsl 19 128 127 0 0 1 empty empty 1' 0 -12 0 17 -262144
-1 -1 7000 1;
#X obj 54 -156 notein;
#X floatatom 54 -125 5 0 0 1 MIDI - -;
#X floatatom 133 -125 5 0 0 1 Velocity - -;
#X floatatom 134 -55 5 0 0 1 MIDI - -;
#X floatatom 213 -55 5 0 0 1 Velocity - -;
#X floatatom 54 -55 5 0 0 1 Voice - -;
#X obj 54 -21 pack f f f;
#X floatatom 453 109 5 0 0 0 - - -;
#X floatatom 503 109 5 0 0 0 - - -;
#X floatatom 553 109 5 0 0 0 - - -;
#X floatatom 603 109 5 0 0 0 - - -;
#X floatatom 653 109 5 0 0 0 - - -;
#X floatatom 703 109 5 0 0 0 - - -;
#X floatatom 753 109 5 0 0 0 - - -;
#X floatatom 803 109 5 0 0 0 - - -;
#X floatatom 853 109 5 0 0 0 - - -;
#X obj 453 132 / 127;
#X msg 453 156 \$1 20;
#X obj 453 180 line~;
#X obj 453 204 s~ d1;
#X obj 503 132 / 127;
#X msg 503 156 \$1 20;
#X obj 503 180 line~;
#X obj 553 132 / 127;
#X msg 553 156 \$1 20;
#X obj 553 180 line~;
#X obj 603 132 / 127;
#X msg 603 156 \$1 20;
#X obj 603 180 line~;
#X obj 653 132 / 127;
#X msg 653 156 \$1 20;
#X obj 653 180 line~;
#X obj 703 132 / 127;
#X msg 703 156 \$1 20;
#X obj 703 180 line~;
#X obj 753 132 / 127;
#X msg 753 156 \$1 20;
#X obj 753 180 line~;
#X obj 803 132 / 127;
#X msg 803 156 \$1 20;
#X obj 803 180 line~;
#X obj 853 132 / 127;
#X msg 853 156 \$1 20;
#X obj 853 180 line~;
#X obj 39 179 *~ 0.5;
#X obj 39 203 clip~ -1 1;
#X obj 39 227 hip~ 3;
#X obj 39 251 *~ 0.5;
#X obj 39 275 dac~ 1 2;
#X obj 503 204 s~ d2;
#X obj 553 204 s~ d3;
#X obj 603 204 s~ d4;
#X obj 653 204 s~ d5;
#X obj 703 204 s~ d6;
#X obj 753 204 s~ d7;
#X obj 803 204 s~ d8;
#X obj 853 204 s~ d9;
#X obj 134 31 chorus;
#X obj 54 -95 poly 12 1;
#X obj 54 3 clone -s 1 voice 12;
#X obj 450 -75 tgl 19 1 vibrato empty VIBRATO 0 -8 0 12 -262144 -1
-1 1 1;
#X obj 510 -75 tgl 19 1 chorus empty CHORUS 0 -8 0 12 -262144 -1 -1
1 1;
#X obj 152 55 r chorus;
#X obj 134 79 *~;
#X obj 54 105 *~;
#X obj 72 57 r chorus;
#X obj 72 81 == 0;
#X obj 54 129 +~;
#X obj 166 148 +~;
#X obj 54 27 /~ 2;
#X connect 0 0 16 0;
#X connect 1 0 17 0;
#X connect 2 0 18 0;
#X connect 3 0 19 0;
#X connect 4 0 20 0;
#X connect 5 0 21 0;
#X connect 6 0 22 0;
#X connect 7 0 23 0;
#X connect 8 0 24 0;
#X connect 9 0 10 0;
#X connect 9 1 11 0;
#X connect 10 0 67 0;
#X connect 11 0 67 1;
#X connect 12 0 15 1;
#X connect 13 0 15 2;
#X connect 14 0 15 0;
#X connect 15 0 68 0;
#X connect 16 0 25 0;
#X connect 17 0 29 0;
#X connect 18 0 32 0;
#X connect 19 0 35 0;
#X connect 20 0 38 0;
#X connect 21 0 41 0;
#X connect 22 0 44 0;
#X connect 23 0 47 0;
#X connect 24 0 50 0;
#X connect 25 0 26 0;
#X connect 26 0 27 0;
#X connect 27 0 28 0;
#X connect 29 0 30 0;
#X connect 30 0 31 0;
#X connect 31 0 58 0;
#X connect 32 0 33 0;
#X connect 33 0 34 0;
#X connect 34 0 59 0;
#X connect 35 0 36 0;
#X connect 36 0 37 0;
#X connect 37 0 60 0;
#X connect 38 0 39 0;
#X connect 39 0 40 0;
#X connect 40 0 61 0;
#X connect 41 0 42 0;
#X connect 42 0 43 0;
#X connect 43 0 62 0;
#X connect 44 0 45 0;
#X connect 45 0 46 0;
#X connect 46 0 63 0;
#X connect 47 0 48 0;
#X connect 48 0 49 0;
#X connect 49 0 64 0;
#X connect 50 0 51 0;
#X connect 51 0 52 0;
#X connect 52 0 65 0;
#X connect 53 0 54 0;
#X connect 54 0 55 0;
#X connect 55 0 56 0;
#X connect 56 0 57 0;
#X connect 56 0 57 1;
#X connect 66 0 72 0;
#X connect 67 0 14 0;
#X connect 67 1 12 0;
#X connect 67 2 13 0;
#X connect 68 0 66 0;
#X connect 68 0 78 0;
#X connect 68 1 77 1;
#X connect 71 0 72 1;
#X connect 72 0 76 1;
#X connect 73 0 76 0;
#X connect 74 0 75 0;
#X connect 75 0 73 1;
#X connect 76 0 77 0;
#X connect 77 0 53 0;
#X connect 78 0 73 0;
