#N canvas -4 23 1916 1035 24;
#X obj 43 237 -~ 0.25;
#X obj 43 268 *~ 1;
#X obj 43 299 cos~;
#X obj 406 470 tgl 26 0 empty empty empty 17 7 0 10 -262144 -1 -1 1
1;
#X obj 406 501 metro 50;
#X obj 406 533 tabwrite~ \$0-scope;
#N canvas 0 22 450 278 (subpatch) 0;
#X array \$0-scope 441 float 1;
#A 0 0 0 0 0 0 0 0 0 0 0 0 0 0 0 0 0 0 0 0 0 0 0 0 0 0 0 0 0 0 0 0
0 0 0 0 0 0 0 0 0 0 0 0 0 0 0 0 0 0 0 0 0 0 0 0 0 0 0 0 0 0 0 0 0 0
0 0 0 0 0 0 0 0 0 0 0 0 0 0 0 0 0 0 0 0 0 0 0 0 0 0 0 0 0 0 0 0 0 0
0 0 0 0 0 0 0 0 0 0 0 0 0 0 0 0 0 0 0 0 0 0 0 0 0 0 0 0 0 0 0 0 0 0
0 0 0 0 0 0 0 0 0 0 0 0 0 0 0 0 0 0 0 0 0 0 0 0 0 0 0 0 0 0 0 0 0 0
0 0 0 0 0 0 0 0 0 0 0 0 0 0 0 0 0 0 0 0 0 0 0 0 0 0 0 0 0 0 0 0 0 0
0 0 0 0 0 0 0 0 0 0 0 0 0 0 0 0 0 0 0 0 0 0 0 0 0 0 0 0 0 0 0 0 0 0
0 0 0 0 0 0 0 0 0 0 0 0 0 0 0 0 0 0 0 0 0 0 0 0 0 0 0 0 0 0 0 0 0 0
0 0 0 0 0 0 0 0 0 0 0 0 0 0 0 0 0 0 0 0 0 0 0 0 0 0 0 0 0 0 0 0 0 0
0 0 0 0 0 0 0 0 0 0 0 0 0 0 0 0 0 0 0 0 0 0 0 0 0 0 0 0 0 0 0 0 0 0
0 0 0 0 0 0 0 0 0 0 0 0 0 0 0 0 0 0 0 0 0 0 0 0 0 0 0 0 0 0 0 0 0 0
0 0 0 0 0 0 0 0 0 0 0 0 0 0 0 0 0 0 0 0 0 0 0 0 0 0 0 0 0 0 0 0 0 0
0 0 0 0 0 0 0 0 0 0 0 0 0 0 0 0 0 0 0 0 0 0 0 0 0 0 0 0 0 0 0 0 0 0
0 0;
#X coords 0 1 440 -1 200 140 1 0 0;
#X restore 846 428 graph;
#X obj 43 340 *~;
#X text 83 268 st Harmonic;
#X text 103 288 Sub-fundamental;
#X obj 263 237 -~ 0.25;
#X obj 263 299 cos~;
#X obj 263 340 *~;
#X obj 263 268 *~ 2;
#X text 323 288 Fundamental;
#X obj 443 237 -~ 0.25;
#X obj 443 299 cos~;
#X obj 443 340 *~;
#X obj 443 268 *~ 3;
#X text 503 288 Sub 3rd;
#X obj 593 237 -~ 0.25;
#X obj 593 299 cos~;
#X obj 593 340 *~;
#X obj 593 268 *~ 4;
#X text 653 288 2nd;
#X obj 723 237 -~ 0.25;
#X obj 723 299 cos~;
#X obj 723 340 *~;
#X text 783 288 3rd;
#X obj 723 268 *~ 6;
#X obj 853 237 -~ 0.25;
#X obj 853 299 cos~;
#X obj 853 340 *~;
#X text 913 288 4th;
#X obj 853 268 *~ 8;
#X text 93 308 1/2 = 0.5;
#X text 313 308 1/1 = 1;
#X text 493 308 3/2 = 1.5;
#X text 773 308 6/2 = 3;
#X text 643 308 4/2 = 2;
#X text 903 308 8/2 = 4;
#X obj 983 237 -~ 0.25;
#X obj 983 299 cos~;
#X obj 983 340 *~;
#X text 763 268 th Harm.;
#X text 303 268 nd Harm.;
#X text 483 268 rd Harm.;
#X text 633 268 th Harm.;
#X text 893 268 th Harm.;
#X text 1033 308 10/2 = 5;
#X text 1043 288 5th;
#X obj 983 268 *~ 10;
#X text 1033 268 th Harm.;
#X obj 1123 237 -~ 0.25;
#X obj 1123 299 cos~;
#X obj 1123 340 *~;
#X text 1183 288 6th;
#X text 1173 308 12/2 = 6;
#X obj 1123 268 *~ 12;
#X text 1173 268 th Harm.;
#X obj 1263 237 -~ 0.25;
#X obj 1263 299 cos~;
#X obj 1263 340 *~;
#X text 1323 288 8th;
#X text 1313 308 16/2 = 8;
#X obj 1263 268 *~ 16;
#X text 1313 268 th Harm.;
#X obj 873 -27 vsl 26 128 127 0 0 0 empty empty 16' 0 -12 0 17 -1 -262144
-1 7300 1;
#X obj 923 -27 vsl 26 128 127 0 0 0 empty empty 8' 0 -12 0 17 -262144
-1 -1 0 1;
#X obj 973 -27 vsl 26 128 127 0 0 0 empty empty 5(1/3)' -5 -12 0 11
-1 -262144 -1 6700 1;
#X obj 873 109 / 127;
#X obj 923 109 / 127;
#X obj 973 109 / 127;
#X obj 1023 -27 vsl 26 128 127 0 0 0 empty empty 4' 0 -12 0 17 -262144
-1 -1 9400 1;
#X obj 1023 109 / 127;
#X obj 43 800 dac~;
#X obj 873 140 lop~ 50;
#X obj 923 140 lop~ 50;
#X obj 973 140 lop~ 50;
#X obj 1023 140 lop~ 50;
#X obj 1073 -27 vsl 26 128 127 0 0 0 empty empty 2(2/3)' -5 -12 0 11
-1 -262144 -1 10500 1;
#X obj 1073 109 / 127;
#X obj 1073 140 lop~ 50;
#X obj 1123 -27 vsl 26 128 127 0 0 0 empty empty 2' 0 -12 0 17 -262144
-1 -1 10900 1;
#X obj 1123 109 / 127;
#X obj 1123 140 lop~ 50;
#X obj 1173 -27 vsl 26 128 127 0 0 0 empty empty 1(3/5)' -5 -12 0 11
-1 -262144 -1 9400 1;
#X obj 1173 109 / 127;
#X obj 1173 140 lop~ 50;
#X obj 1223 -27 vsl 26 128 127 0 0 0 empty empty 1(1/3)' -5 -12 0 11
-1 -262144 -1 11300 1;
#X obj 1223 109 / 127;
#X obj 1223 140 lop~ 50;
#X obj 1273 -27 vsl 26 128 127 0 0 0 empty empty 1' 0 -12 0 17 -262144
-1 -1 12100 1;
#X obj 1273 109 / 127;
#X obj 1273 140 lop~ 50;
#X obj 813 -86 loadbang;
#X msg 813 -55 0;
#X obj 873 171 s~ q;
#X obj 923 171 s~ w;
#X obj 973 171 s~ e;
#X obj 1023 171 s~ r;
#X obj 1073 171 s~ t;
#X obj 1123 171 s~ y;
#X obj 1173 171 s~ u;
#X obj 1223 171 s~ i;
#X obj 1273 171 s~ o;
#X obj 83 334 r~ q;
#X obj 303 334 r~ w;
#X obj 483 334 r~ e;
#X obj 633 334 r~ r;
#X obj 763 334 r~ t;
#X obj 893 334 r~ y;
#X obj 1023 334 r~ u;
#X obj 1163 334 r~ i;
#X obj 1303 334 r~ o;
#X obj 43 366 *~ 0.1875;
#X obj 44 211 phasor~;
#X msg 318 185 0.25;
#X obj 44 -156 notein;
#X floatatom 44 -125 5 0 0 1 MIDI - -;
#X floatatom 144 -125 5 0 0 1 Velocity - -;
#X obj 44 -64 pack f f f;
#X obj 44 -2 unpack;
#X floatatom 318 55 5 0 0 0 - - -;
#X obj 318 24 > 0;
#X obj 318 85 sel 1;
#X obj 43 397 *~;
#X floatatom 44 29 5 0 0 1 MIDI - -;
#X obj 44 59 mtof;
#X floatatom 44 90 5 0 0 1 Hz - -;
#X obj 44 120 sig~;
#X obj 43 428 /~ 4;
#X obj 43 674 *~ 2;
#X obj 203 560 max~;
#X obj 203 493 *~ 2;
#X obj 203 524 -~ 1;
#X obj 253 493 *~ -2;
#X obj 253 524 +~ 1;
#X obj 113 555 sig~ 1;
#X obj 113 586 -~;
#X obj 43 705 *~;
#X obj 173 743 *~;
#X obj 43 736 hip~ 3;
#X obj 173 774 hip~ 3;
#X msg 253 400 0;
#X obj 203 462 phasor~;
#X obj 203 431 lop~ 0.25;
#X msg 303 400 8;
#X obj 203 622 hip~ 3;
#X obj 203 653 +~ 0.5;
#X obj 113 679 +~ 0.5;
#X obj 113 648 hip~ 3;
#X msg 203 400 2;
#N canvas 544 193 409 431 ExpFM 0;
#X obj 72 122 pow~;
#X obj 173 34 max~;
#X obj 173 -33 *~ 2;
#X obj 173 -2 -~ 1;
#X obj 223 -33 *~ -2;
#X obj 223 -2 +~ 1;
#X obj 72 77 sig~ 2;
#X obj 72 153 -~ 1;
#X obj 173 65 *~ 2;
#X obj 173 96 -~ 1;
#X obj 72 184 *~;
#X obj -8 158 inlet~;
#X obj 72 215 outlet~;
#X obj 173 -64 phasor~ 7;
#X obj 269 -157 loadbang;
#X obj 269 -95 / 100;
#X obj 269 -126 random 101;
#X connect 0 0 7 0;
#X connect 1 0 8 0;
#X connect 2 0 3 0;
#X connect 3 0 1 0;
#X connect 4 0 5 0;
#X connect 5 0 1 1;
#X connect 6 0 0 0;
#X connect 7 0 10 0;
#X connect 8 0 9 0;
#X connect 9 0 0 1;
#X connect 10 0 12 0;
#X connect 11 0 10 1;
#X connect 13 0 2 0;
#X connect 13 0 4 0;
#X connect 14 0 16 0;
#X connect 15 0 13 1;
#X connect 16 0 15 0;
#X restore 115 146 pd ExpFM;
#X obj 707 71 tgl 26 0 empty empty VIBRATO 0 -9 0 17 -1 -228856 -1
1 1;
#X obj 707 133 lop~ 0.25;
#X obj 707 164 s~ vib;
#X obj 115 177 *~;
#X obj 215 151 r~ vib;
#N canvas 325 194 1436 500 Voice2 0;
#X obj 53 267 -~ 0.25;
#X obj 53 298 *~ 1;
#X obj 53 329 cos~;
#X obj 53 370 *~;
#X text 93 298 st Harmonic;
#X text 113 318 Sub-fundamental;
#X obj 273 267 -~ 0.25;
#X obj 273 329 cos~;
#X obj 273 370 *~;
#X obj 273 298 *~ 2;
#X text 333 318 Fundamental;
#X obj 453 267 -~ 0.25;
#X obj 453 329 cos~;
#X obj 453 370 *~;
#X obj 453 298 *~ 3;
#X text 513 318 Sub 3rd;
#X obj 603 267 -~ 0.25;
#X obj 603 329 cos~;
#X obj 603 370 *~;
#X obj 603 298 *~ 4;
#X text 663 318 2nd;
#X obj 733 267 -~ 0.25;
#X obj 733 329 cos~;
#X obj 733 370 *~;
#X text 793 318 3rd;
#X obj 733 298 *~ 6;
#X obj 863 267 -~ 0.25;
#X obj 863 329 cos~;
#X obj 863 370 *~;
#X text 923 318 4th;
#X obj 863 298 *~ 8;
#X text 103 338 1/2 = 0.5;
#X text 323 338 1/1 = 1;
#X text 503 338 3/2 = 1.5;
#X text 783 338 6/2 = 3;
#X text 653 338 4/2 = 2;
#X text 913 338 8/2 = 4;
#X obj 993 267 -~ 0.25;
#X obj 993 329 cos~;
#X obj 993 370 *~;
#X text 773 298 th Harm.;
#X text 313 298 nd Harm.;
#X text 493 298 rd Harm.;
#X text 643 298 th Harm.;
#X text 903 298 th Harm.;
#X text 1043 338 10/2 = 5;
#X text 1053 318 5th;
#X obj 993 298 *~ 10;
#X text 1043 298 th Harm.;
#X obj 1133 267 -~ 0.25;
#X obj 1133 329 cos~;
#X obj 1133 370 *~;
#X text 1193 318 6th;
#X text 1183 338 12/2 = 6;
#X obj 1133 298 *~ 12;
#X text 1183 298 th Harm.;
#X obj 1273 267 -~ 0.25;
#X obj 1273 329 cos~;
#X obj 1273 370 *~;
#X text 1333 318 8th;
#X text 1323 338 16/2 = 8;
#X obj 1273 298 *~ 16;
#X text 1323 298 th Harm.;
#X obj 93 364 r~ q;
#X obj 313 364 r~ w;
#X obj 493 364 r~ e;
#X obj 643 364 r~ r;
#X obj 773 364 r~ t;
#X obj 903 364 r~ y;
#X obj 1033 364 r~ u;
#X obj 1173 364 r~ i;
#X obj 1313 364 r~ o;
#X obj 53 396 *~ 0.1875;
#X obj 54 241 phasor~;
#X msg 328 215 0.25;
#X obj 54 28 unpack;
#X floatatom 328 85 5 0 0 0 - - -;
#X obj 328 54 > 0;
#X obj 328 115 sel 1;
#X obj 53 427 *~;
#X floatatom 54 59 5 0 0 1 MIDI - -;
#X obj 54 89 mtof;
#X floatatom 54 120 5 0 0 1 Hz - -;
#X obj 54 150 sig~;
#N canvas 544 193 409 431 ExpFM 0;
#X obj 72 122 pow~;
#X obj 173 34 max~;
#X obj 173 -33 *~ 2;
#X obj 173 -2 -~ 1;
#X obj 223 -33 *~ -2;
#X obj 223 -2 +~ 1;
#X obj 72 77 sig~ 2;
#X obj 72 153 -~ 1;
#X obj 173 65 *~ 2;
#X obj 173 96 -~ 1;
#X obj 72 184 *~;
#X obj -8 158 inlet~;
#X obj 72 215 outlet~;
#X obj 173 -64 phasor~ 7;
#X obj 269 -157 loadbang;
#X obj 269 -95 / 100;
#X obj 269 -126 random 101;
#X connect 0 0 7 0;
#X connect 1 0 8 0;
#X connect 2 0 3 0;
#X connect 3 0 1 0;
#X connect 4 0 5 0;
#X connect 5 0 1 1;
#X connect 6 0 0 0;
#X connect 7 0 10 0;
#X connect 8 0 9 0;
#X connect 9 0 0 1;
#X connect 10 0 12 0;
#X connect 11 0 10 1;
#X connect 13 0 2 0;
#X connect 13 0 4 0;
#X connect 14 0 16 0;
#X connect 15 0 13 1;
#X connect 16 0 15 0;
#X restore 125 176 pd ExpFM;
#X obj 125 207 *~;
#X obj 225 181 r~ vib;
#X obj 54 -3 inlet;
#X obj 53 458 outlet~;
#X connect 0 0 1 0;
#X connect 1 0 2 0;
#X connect 2 0 3 0;
#X connect 3 0 72 0;
#X connect 6 0 9 0;
#X connect 7 0 8 0;
#X connect 8 0 72 0;
#X connect 9 0 7 0;
#X connect 11 0 14 0;
#X connect 12 0 13 0;
#X connect 13 0 72 0;
#X connect 14 0 12 0;
#X connect 16 0 19 0;
#X connect 17 0 18 0;
#X connect 18 0 72 0;
#X connect 19 0 17 0;
#X connect 21 0 25 0;
#X connect 22 0 23 0;
#X connect 23 0 72 0;
#X connect 25 0 22 0;
#X connect 26 0 30 0;
#X connect 27 0 28 0;
#X connect 28 0 72 0;
#X connect 30 0 27 0;
#X connect 37 0 47 0;
#X connect 38 0 39 0;
#X connect 39 0 72 0;
#X connect 47 0 38 0;
#X connect 49 0 54 0;
#X connect 50 0 51 0;
#X connect 51 0 72 0;
#X connect 54 0 50 0;
#X connect 56 0 61 0;
#X connect 57 0 58 0;
#X connect 58 0 72 0;
#X connect 61 0 57 0;
#X connect 63 0 3 1;
#X connect 64 0 8 1;
#X connect 65 0 13 1;
#X connect 66 0 18 1;
#X connect 67 0 23 1;
#X connect 68 0 28 1;
#X connect 69 0 39 1;
#X connect 70 0 51 1;
#X connect 71 0 58 1;
#X connect 72 0 79 0;
#X connect 73 0 0 0;
#X connect 73 0 6 0;
#X connect 73 0 11 0;
#X connect 73 0 16 0;
#X connect 73 0 21 0;
#X connect 73 0 26 0;
#X connect 73 0 37 0;
#X connect 73 0 49 0;
#X connect 73 0 56 0;
#X connect 74 0 73 1;
#X connect 75 0 80 0;
#X connect 75 1 77 0;
#X connect 76 0 78 0;
#X connect 76 0 79 1;
#X connect 77 0 76 0;
#X connect 78 0 74 0;
#X connect 79 0 88 0;
#X connect 80 0 81 0;
#X connect 81 0 82 0;
#X connect 82 0 83 0;
#X connect 83 0 73 0;
#X connect 83 0 84 0;
#X connect 84 0 85 0;
#X connect 85 0 73 0;
#X connect 86 0 85 1;
#X connect 87 0 75 0;
#X restore -516 -7 pd Voice2;
#X obj 44 -33 route 1 2 3 4 5 6;
#X obj 44 -95 poly 6 1;
#X text 154 -95 <- 6 Voices / 1 = Voice Stealing Activated;
#N canvas 325 194 1436 500 Voice3 0;
#X obj 53 267 -~ 0.25;
#X obj 53 298 *~ 1;
#X obj 53 329 cos~;
#X obj 53 370 *~;
#X text 93 298 st Harmonic;
#X text 113 318 Sub-fundamental;
#X obj 273 267 -~ 0.25;
#X obj 273 329 cos~;
#X obj 273 370 *~;
#X obj 273 298 *~ 2;
#X text 333 318 Fundamental;
#X obj 453 267 -~ 0.25;
#X obj 453 329 cos~;
#X obj 453 370 *~;
#X obj 453 298 *~ 3;
#X text 513 318 Sub 3rd;
#X obj 603 267 -~ 0.25;
#X obj 603 329 cos~;
#X obj 603 370 *~;
#X obj 603 298 *~ 4;
#X text 663 318 2nd;
#X obj 733 267 -~ 0.25;
#X obj 733 329 cos~;
#X obj 733 370 *~;
#X text 793 318 3rd;
#X obj 733 298 *~ 6;
#X obj 863 267 -~ 0.25;
#X obj 863 329 cos~;
#X obj 863 370 *~;
#X text 923 318 4th;
#X obj 863 298 *~ 8;
#X text 103 338 1/2 = 0.5;
#X text 323 338 1/1 = 1;
#X text 503 338 3/2 = 1.5;
#X text 783 338 6/2 = 3;
#X text 653 338 4/2 = 2;
#X text 913 338 8/2 = 4;
#X obj 993 267 -~ 0.25;
#X obj 993 329 cos~;
#X obj 993 370 *~;
#X text 773 298 th Harm.;
#X text 313 298 nd Harm.;
#X text 493 298 rd Harm.;
#X text 643 298 th Harm.;
#X text 903 298 th Harm.;
#X text 1043 338 10/2 = 5;
#X text 1053 318 5th;
#X obj 993 298 *~ 10;
#X text 1043 298 th Harm.;
#X obj 1133 267 -~ 0.25;
#X obj 1133 329 cos~;
#X obj 1133 370 *~;
#X text 1193 318 6th;
#X text 1183 338 12/2 = 6;
#X obj 1133 298 *~ 12;
#X text 1183 298 th Harm.;
#X obj 1273 267 -~ 0.25;
#X obj 1273 329 cos~;
#X obj 1273 370 *~;
#X text 1333 318 8th;
#X text 1323 338 16/2 = 8;
#X obj 1273 298 *~ 16;
#X text 1323 298 th Harm.;
#X obj 93 364 r~ q;
#X obj 313 364 r~ w;
#X obj 493 364 r~ e;
#X obj 643 364 r~ r;
#X obj 773 364 r~ t;
#X obj 903 364 r~ y;
#X obj 1033 364 r~ u;
#X obj 1173 364 r~ i;
#X obj 1313 364 r~ o;
#X obj 53 396 *~ 0.1875;
#X obj 54 241 phasor~;
#X msg 328 215 0.25;
#X obj 54 28 unpack;
#X floatatom 328 85 5 0 0 0 - - -;
#X obj 328 54 > 0;
#X obj 328 115 sel 1;
#X obj 53 427 *~;
#X floatatom 54 59 5 0 0 1 MIDI - -;
#X obj 54 89 mtof;
#X floatatom 54 120 5 0 0 1 Hz - -;
#X obj 54 150 sig~;
#N canvas 544 193 409 431 ExpFM 0;
#X obj 72 122 pow~;
#X obj 173 34 max~;
#X obj 173 -33 *~ 2;
#X obj 173 -2 -~ 1;
#X obj 223 -33 *~ -2;
#X obj 223 -2 +~ 1;
#X obj 72 77 sig~ 2;
#X obj 72 153 -~ 1;
#X obj 173 65 *~ 2;
#X obj 173 96 -~ 1;
#X obj 72 184 *~;
#X obj -8 158 inlet~;
#X obj 72 215 outlet~;
#X obj 173 -64 phasor~ 7;
#X obj 269 -157 loadbang;
#X obj 269 -95 / 100;
#X obj 269 -126 random 101;
#X connect 0 0 7 0;
#X connect 1 0 8 0;
#X connect 2 0 3 0;
#X connect 3 0 1 0;
#X connect 4 0 5 0;
#X connect 5 0 1 1;
#X connect 6 0 0 0;
#X connect 7 0 10 0;
#X connect 8 0 9 0;
#X connect 9 0 0 1;
#X connect 10 0 12 0;
#X connect 11 0 10 1;
#X connect 13 0 2 0;
#X connect 13 0 4 0;
#X connect 14 0 16 0;
#X connect 15 0 13 1;
#X connect 16 0 15 0;
#X restore 125 176 pd ExpFM;
#X obj 125 207 *~;
#X obj 225 181 r~ vib;
#X obj 54 -3 inlet;
#X obj 53 458 outlet~;
#X connect 0 0 1 0;
#X connect 1 0 2 0;
#X connect 2 0 3 0;
#X connect 3 0 72 0;
#X connect 6 0 9 0;
#X connect 7 0 8 0;
#X connect 8 0 72 0;
#X connect 9 0 7 0;
#X connect 11 0 14 0;
#X connect 12 0 13 0;
#X connect 13 0 72 0;
#X connect 14 0 12 0;
#X connect 16 0 19 0;
#X connect 17 0 18 0;
#X connect 18 0 72 0;
#X connect 19 0 17 0;
#X connect 21 0 25 0;
#X connect 22 0 23 0;
#X connect 23 0 72 0;
#X connect 25 0 22 0;
#X connect 26 0 30 0;
#X connect 27 0 28 0;
#X connect 28 0 72 0;
#X connect 30 0 27 0;
#X connect 37 0 47 0;
#X connect 38 0 39 0;
#X connect 39 0 72 0;
#X connect 47 0 38 0;
#X connect 49 0 54 0;
#X connect 50 0 51 0;
#X connect 51 0 72 0;
#X connect 54 0 50 0;
#X connect 56 0 61 0;
#X connect 57 0 58 0;
#X connect 58 0 72 0;
#X connect 61 0 57 0;
#X connect 63 0 3 1;
#X connect 64 0 8 1;
#X connect 65 0 13 1;
#X connect 66 0 18 1;
#X connect 67 0 23 1;
#X connect 68 0 28 1;
#X connect 69 0 39 1;
#X connect 70 0 51 1;
#X connect 71 0 58 1;
#X connect 72 0 79 0;
#X connect 73 0 0 0;
#X connect 73 0 6 0;
#X connect 73 0 11 0;
#X connect 73 0 16 0;
#X connect 73 0 21 0;
#X connect 73 0 26 0;
#X connect 73 0 37 0;
#X connect 73 0 49 0;
#X connect 73 0 56 0;
#X connect 74 0 73 1;
#X connect 75 0 80 0;
#X connect 75 1 77 0;
#X connect 76 0 78 0;
#X connect 76 0 79 1;
#X connect 77 0 76 0;
#X connect 78 0 74 0;
#X connect 79 0 88 0;
#X connect 80 0 81 0;
#X connect 81 0 82 0;
#X connect 82 0 83 0;
#X connect 83 0 73 0;
#X connect 83 0 84 0;
#X connect 84 0 85 0;
#X connect 85 0 73 0;
#X connect 86 0 85 1;
#X connect 87 0 75 0;
#X restore -406 -7 pd Voice3;
#N canvas 325 194 1436 500 Voice4 0;
#X obj 53 267 -~ 0.25;
#X obj 53 298 *~ 1;
#X obj 53 329 cos~;
#X obj 53 370 *~;
#X text 93 298 st Harmonic;
#X text 113 318 Sub-fundamental;
#X obj 273 267 -~ 0.25;
#X obj 273 329 cos~;
#X obj 273 370 *~;
#X obj 273 298 *~ 2;
#X text 333 318 Fundamental;
#X obj 453 267 -~ 0.25;
#X obj 453 329 cos~;
#X obj 453 370 *~;
#X obj 453 298 *~ 3;
#X text 513 318 Sub 3rd;
#X obj 603 267 -~ 0.25;
#X obj 603 329 cos~;
#X obj 603 370 *~;
#X obj 603 298 *~ 4;
#X text 663 318 2nd;
#X obj 733 267 -~ 0.25;
#X obj 733 329 cos~;
#X obj 733 370 *~;
#X text 793 318 3rd;
#X obj 733 298 *~ 6;
#X obj 863 267 -~ 0.25;
#X obj 863 329 cos~;
#X obj 863 370 *~;
#X text 923 318 4th;
#X obj 863 298 *~ 8;
#X text 103 338 1/2 = 0.5;
#X text 323 338 1/1 = 1;
#X text 503 338 3/2 = 1.5;
#X text 783 338 6/2 = 3;
#X text 653 338 4/2 = 2;
#X text 913 338 8/2 = 4;
#X obj 993 267 -~ 0.25;
#X obj 993 329 cos~;
#X obj 993 370 *~;
#X text 773 298 th Harm.;
#X text 313 298 nd Harm.;
#X text 493 298 rd Harm.;
#X text 643 298 th Harm.;
#X text 903 298 th Harm.;
#X text 1043 338 10/2 = 5;
#X text 1053 318 5th;
#X obj 993 298 *~ 10;
#X text 1043 298 th Harm.;
#X obj 1133 267 -~ 0.25;
#X obj 1133 329 cos~;
#X obj 1133 370 *~;
#X text 1193 318 6th;
#X text 1183 338 12/2 = 6;
#X obj 1133 298 *~ 12;
#X text 1183 298 th Harm.;
#X obj 1273 267 -~ 0.25;
#X obj 1273 329 cos~;
#X obj 1273 370 *~;
#X text 1333 318 8th;
#X text 1323 338 16/2 = 8;
#X obj 1273 298 *~ 16;
#X text 1323 298 th Harm.;
#X obj 93 364 r~ q;
#X obj 313 364 r~ w;
#X obj 493 364 r~ e;
#X obj 643 364 r~ r;
#X obj 773 364 r~ t;
#X obj 903 364 r~ y;
#X obj 1033 364 r~ u;
#X obj 1173 364 r~ i;
#X obj 1313 364 r~ o;
#X obj 53 396 *~ 0.1875;
#X obj 54 241 phasor~;
#X msg 328 215 0.25;
#X obj 54 28 unpack;
#X floatatom 328 85 5 0 0 0 - - -;
#X obj 328 54 > 0;
#X obj 328 115 sel 1;
#X obj 53 427 *~;
#X floatatom 54 59 5 0 0 1 MIDI - -;
#X obj 54 89 mtof;
#X floatatom 54 120 5 0 0 1 Hz - -;
#X obj 54 150 sig~;
#N canvas 544 193 409 431 ExpFM 0;
#X obj 72 122 pow~;
#X obj 173 34 max~;
#X obj 173 -33 *~ 2;
#X obj 173 -2 -~ 1;
#X obj 223 -33 *~ -2;
#X obj 223 -2 +~ 1;
#X obj 72 77 sig~ 2;
#X obj 72 153 -~ 1;
#X obj 173 65 *~ 2;
#X obj 173 96 -~ 1;
#X obj 72 184 *~;
#X obj -8 158 inlet~;
#X obj 72 215 outlet~;
#X obj 173 -64 phasor~ 7;
#X obj 269 -157 loadbang;
#X obj 269 -95 / 100;
#X obj 269 -126 random 101;
#X connect 0 0 7 0;
#X connect 1 0 8 0;
#X connect 2 0 3 0;
#X connect 3 0 1 0;
#X connect 4 0 5 0;
#X connect 5 0 1 1;
#X connect 6 0 0 0;
#X connect 7 0 10 0;
#X connect 8 0 9 0;
#X connect 9 0 0 1;
#X connect 10 0 12 0;
#X connect 11 0 10 1;
#X connect 13 0 2 0;
#X connect 13 0 4 0;
#X connect 14 0 16 0;
#X connect 15 0 13 1;
#X connect 16 0 15 0;
#X restore 125 176 pd ExpFM;
#X obj 125 207 *~;
#X obj 225 181 r~ vib;
#X obj 54 -3 inlet;
#X obj 53 458 outlet~;
#X connect 0 0 1 0;
#X connect 1 0 2 0;
#X connect 2 0 3 0;
#X connect 3 0 72 0;
#X connect 6 0 9 0;
#X connect 7 0 8 0;
#X connect 8 0 72 0;
#X connect 9 0 7 0;
#X connect 11 0 14 0;
#X connect 12 0 13 0;
#X connect 13 0 72 0;
#X connect 14 0 12 0;
#X connect 16 0 19 0;
#X connect 17 0 18 0;
#X connect 18 0 72 0;
#X connect 19 0 17 0;
#X connect 21 0 25 0;
#X connect 22 0 23 0;
#X connect 23 0 72 0;
#X connect 25 0 22 0;
#X connect 26 0 30 0;
#X connect 27 0 28 0;
#X connect 28 0 72 0;
#X connect 30 0 27 0;
#X connect 37 0 47 0;
#X connect 38 0 39 0;
#X connect 39 0 72 0;
#X connect 47 0 38 0;
#X connect 49 0 54 0;
#X connect 50 0 51 0;
#X connect 51 0 72 0;
#X connect 54 0 50 0;
#X connect 56 0 61 0;
#X connect 57 0 58 0;
#X connect 58 0 72 0;
#X connect 61 0 57 0;
#X connect 63 0 3 1;
#X connect 64 0 8 1;
#X connect 65 0 13 1;
#X connect 66 0 18 1;
#X connect 67 0 23 1;
#X connect 68 0 28 1;
#X connect 69 0 39 1;
#X connect 70 0 51 1;
#X connect 71 0 58 1;
#X connect 72 0 79 0;
#X connect 73 0 0 0;
#X connect 73 0 6 0;
#X connect 73 0 11 0;
#X connect 73 0 16 0;
#X connect 73 0 21 0;
#X connect 73 0 26 0;
#X connect 73 0 37 0;
#X connect 73 0 49 0;
#X connect 73 0 56 0;
#X connect 74 0 73 1;
#X connect 75 0 80 0;
#X connect 75 1 77 0;
#X connect 76 0 78 0;
#X connect 76 0 79 1;
#X connect 77 0 76 0;
#X connect 78 0 74 0;
#X connect 79 0 88 0;
#X connect 80 0 81 0;
#X connect 81 0 82 0;
#X connect 82 0 83 0;
#X connect 83 0 73 0;
#X connect 83 0 84 0;
#X connect 84 0 85 0;
#X connect 85 0 73 0;
#X connect 86 0 85 1;
#X connect 87 0 75 0;
#X restore -296 -7 pd Voice4;
#N canvas 325 194 1436 500 Voice5 0;
#X obj 53 267 -~ 0.25;
#X obj 53 298 *~ 1;
#X obj 53 329 cos~;
#X obj 53 370 *~;
#X text 93 298 st Harmonic;
#X text 113 318 Sub-fundamental;
#X obj 273 267 -~ 0.25;
#X obj 273 329 cos~;
#X obj 273 370 *~;
#X obj 273 298 *~ 2;
#X text 333 318 Fundamental;
#X obj 453 267 -~ 0.25;
#X obj 453 329 cos~;
#X obj 453 370 *~;
#X obj 453 298 *~ 3;
#X text 513 318 Sub 3rd;
#X obj 603 267 -~ 0.25;
#X obj 603 329 cos~;
#X obj 603 370 *~;
#X obj 603 298 *~ 4;
#X text 663 318 2nd;
#X obj 733 267 -~ 0.25;
#X obj 733 329 cos~;
#X obj 733 370 *~;
#X text 793 318 3rd;
#X obj 733 298 *~ 6;
#X obj 863 267 -~ 0.25;
#X obj 863 329 cos~;
#X obj 863 370 *~;
#X text 923 318 4th;
#X obj 863 298 *~ 8;
#X text 103 338 1/2 = 0.5;
#X text 323 338 1/1 = 1;
#X text 503 338 3/2 = 1.5;
#X text 783 338 6/2 = 3;
#X text 653 338 4/2 = 2;
#X text 913 338 8/2 = 4;
#X obj 993 267 -~ 0.25;
#X obj 993 329 cos~;
#X obj 993 370 *~;
#X text 773 298 th Harm.;
#X text 313 298 nd Harm.;
#X text 493 298 rd Harm.;
#X text 643 298 th Harm.;
#X text 903 298 th Harm.;
#X text 1043 338 10/2 = 5;
#X text 1053 318 5th;
#X obj 993 298 *~ 10;
#X text 1043 298 th Harm.;
#X obj 1133 267 -~ 0.25;
#X obj 1133 329 cos~;
#X obj 1133 370 *~;
#X text 1193 318 6th;
#X text 1183 338 12/2 = 6;
#X obj 1133 298 *~ 12;
#X text 1183 298 th Harm.;
#X obj 1273 267 -~ 0.25;
#X obj 1273 329 cos~;
#X obj 1273 370 *~;
#X text 1333 318 8th;
#X text 1323 338 16/2 = 8;
#X obj 1273 298 *~ 16;
#X text 1323 298 th Harm.;
#X obj 93 364 r~ q;
#X obj 313 364 r~ w;
#X obj 493 364 r~ e;
#X obj 643 364 r~ r;
#X obj 773 364 r~ t;
#X obj 903 364 r~ y;
#X obj 1033 364 r~ u;
#X obj 1173 364 r~ i;
#X obj 1313 364 r~ o;
#X obj 53 396 *~ 0.1875;
#X obj 54 241 phasor~;
#X msg 328 215 0.25;
#X obj 54 28 unpack;
#X floatatom 328 85 5 0 0 0 - - -;
#X obj 328 54 > 0;
#X obj 328 115 sel 1;
#X obj 53 427 *~;
#X floatatom 54 59 5 0 0 1 MIDI - -;
#X obj 54 89 mtof;
#X floatatom 54 120 5 0 0 1 Hz - -;
#X obj 54 150 sig~;
#N canvas 544 193 409 431 ExpFM 0;
#X obj 72 122 pow~;
#X obj 173 34 max~;
#X obj 173 -33 *~ 2;
#X obj 173 -2 -~ 1;
#X obj 223 -33 *~ -2;
#X obj 223 -2 +~ 1;
#X obj 72 77 sig~ 2;
#X obj 72 153 -~ 1;
#X obj 173 65 *~ 2;
#X obj 173 96 -~ 1;
#X obj 72 184 *~;
#X obj -8 158 inlet~;
#X obj 72 215 outlet~;
#X obj 173 -64 phasor~ 7;
#X obj 269 -157 loadbang;
#X obj 269 -95 / 100;
#X obj 269 -126 random 101;
#X connect 0 0 7 0;
#X connect 1 0 8 0;
#X connect 2 0 3 0;
#X connect 3 0 1 0;
#X connect 4 0 5 0;
#X connect 5 0 1 1;
#X connect 6 0 0 0;
#X connect 7 0 10 0;
#X connect 8 0 9 0;
#X connect 9 0 0 1;
#X connect 10 0 12 0;
#X connect 11 0 10 1;
#X connect 13 0 2 0;
#X connect 13 0 4 0;
#X connect 14 0 16 0;
#X connect 15 0 13 1;
#X connect 16 0 15 0;
#X restore 125 176 pd ExpFM;
#X obj 125 207 *~;
#X obj 225 181 r~ vib;
#X obj 54 -3 inlet;
#X obj 53 458 outlet~;
#X connect 0 0 1 0;
#X connect 1 0 2 0;
#X connect 2 0 3 0;
#X connect 3 0 72 0;
#X connect 6 0 9 0;
#X connect 7 0 8 0;
#X connect 8 0 72 0;
#X connect 9 0 7 0;
#X connect 11 0 14 0;
#X connect 12 0 13 0;
#X connect 13 0 72 0;
#X connect 14 0 12 0;
#X connect 16 0 19 0;
#X connect 17 0 18 0;
#X connect 18 0 72 0;
#X connect 19 0 17 0;
#X connect 21 0 25 0;
#X connect 22 0 23 0;
#X connect 23 0 72 0;
#X connect 25 0 22 0;
#X connect 26 0 30 0;
#X connect 27 0 28 0;
#X connect 28 0 72 0;
#X connect 30 0 27 0;
#X connect 37 0 47 0;
#X connect 38 0 39 0;
#X connect 39 0 72 0;
#X connect 47 0 38 0;
#X connect 49 0 54 0;
#X connect 50 0 51 0;
#X connect 51 0 72 0;
#X connect 54 0 50 0;
#X connect 56 0 61 0;
#X connect 57 0 58 0;
#X connect 58 0 72 0;
#X connect 61 0 57 0;
#X connect 63 0 3 1;
#X connect 64 0 8 1;
#X connect 65 0 13 1;
#X connect 66 0 18 1;
#X connect 67 0 23 1;
#X connect 68 0 28 1;
#X connect 69 0 39 1;
#X connect 70 0 51 1;
#X connect 71 0 58 1;
#X connect 72 0 79 0;
#X connect 73 0 0 0;
#X connect 73 0 6 0;
#X connect 73 0 11 0;
#X connect 73 0 16 0;
#X connect 73 0 21 0;
#X connect 73 0 26 0;
#X connect 73 0 37 0;
#X connect 73 0 49 0;
#X connect 73 0 56 0;
#X connect 74 0 73 1;
#X connect 75 0 80 0;
#X connect 75 1 77 0;
#X connect 76 0 78 0;
#X connect 76 0 79 1;
#X connect 77 0 76 0;
#X connect 78 0 74 0;
#X connect 79 0 88 0;
#X connect 80 0 81 0;
#X connect 81 0 82 0;
#X connect 82 0 83 0;
#X connect 83 0 73 0;
#X connect 83 0 84 0;
#X connect 84 0 85 0;
#X connect 85 0 73 0;
#X connect 86 0 85 1;
#X connect 87 0 75 0;
#X restore -186 -7 pd Voice5;
#N canvas 325 194 1436 500 Voice6 0;
#X obj 53 267 -~ 0.25;
#X obj 53 298 *~ 1;
#X obj 53 329 cos~;
#X obj 53 370 *~;
#X text 93 298 st Harmonic;
#X text 113 318 Sub-fundamental;
#X obj 273 267 -~ 0.25;
#X obj 273 329 cos~;
#X obj 273 370 *~;
#X obj 273 298 *~ 2;
#X text 333 318 Fundamental;
#X obj 453 267 -~ 0.25;
#X obj 453 329 cos~;
#X obj 453 370 *~;
#X obj 453 298 *~ 3;
#X text 513 318 Sub 3rd;
#X obj 603 267 -~ 0.25;
#X obj 603 329 cos~;
#X obj 603 370 *~;
#X obj 603 298 *~ 4;
#X text 663 318 2nd;
#X obj 733 267 -~ 0.25;
#X obj 733 329 cos~;
#X obj 733 370 *~;
#X text 793 318 3rd;
#X obj 733 298 *~ 6;
#X obj 863 267 -~ 0.25;
#X obj 863 329 cos~;
#X obj 863 370 *~;
#X text 923 318 4th;
#X obj 863 298 *~ 8;
#X text 103 338 1/2 = 0.5;
#X text 323 338 1/1 = 1;
#X text 503 338 3/2 = 1.5;
#X text 783 338 6/2 = 3;
#X text 653 338 4/2 = 2;
#X text 913 338 8/2 = 4;
#X obj 993 267 -~ 0.25;
#X obj 993 329 cos~;
#X obj 993 370 *~;
#X text 773 298 th Harm.;
#X text 313 298 nd Harm.;
#X text 493 298 rd Harm.;
#X text 643 298 th Harm.;
#X text 903 298 th Harm.;
#X text 1043 338 10/2 = 5;
#X text 1053 318 5th;
#X obj 993 298 *~ 10;
#X text 1043 298 th Harm.;
#X obj 1133 267 -~ 0.25;
#X obj 1133 329 cos~;
#X obj 1133 370 *~;
#X text 1193 318 6th;
#X text 1183 338 12/2 = 6;
#X obj 1133 298 *~ 12;
#X text 1183 298 th Harm.;
#X obj 1273 267 -~ 0.25;
#X obj 1273 329 cos~;
#X obj 1273 370 *~;
#X text 1333 318 8th;
#X text 1323 338 16/2 = 8;
#X obj 1273 298 *~ 16;
#X text 1323 298 th Harm.;
#X obj 93 364 r~ q;
#X obj 313 364 r~ w;
#X obj 493 364 r~ e;
#X obj 643 364 r~ r;
#X obj 773 364 r~ t;
#X obj 903 364 r~ y;
#X obj 1033 364 r~ u;
#X obj 1173 364 r~ i;
#X obj 1313 364 r~ o;
#X obj 53 396 *~ 0.1875;
#X obj 54 241 phasor~;
#X msg 328 215 0.25;
#X obj 54 28 unpack;
#X floatatom 328 85 5 0 0 0 - - -;
#X obj 328 54 > 0;
#X obj 328 115 sel 1;
#X obj 53 427 *~;
#X floatatom 54 59 5 0 0 1 MIDI - -;
#X obj 54 89 mtof;
#X floatatom 54 120 5 0 0 1 Hz - -;
#X obj 54 150 sig~;
#N canvas 544 193 409 431 ExpFM 0;
#X obj 72 122 pow~;
#X obj 173 34 max~;
#X obj 173 -33 *~ 2;
#X obj 173 -2 -~ 1;
#X obj 223 -33 *~ -2;
#X obj 223 -2 +~ 1;
#X obj 72 77 sig~ 2;
#X obj 72 153 -~ 1;
#X obj 173 65 *~ 2;
#X obj 173 96 -~ 1;
#X obj 72 184 *~;
#X obj -8 158 inlet~;
#X obj 72 215 outlet~;
#X obj 173 -64 phasor~ 7;
#X obj 269 -157 loadbang;
#X obj 269 -95 / 100;
#X obj 269 -126 random 101;
#X connect 0 0 7 0;
#X connect 1 0 8 0;
#X connect 2 0 3 0;
#X connect 3 0 1 0;
#X connect 4 0 5 0;
#X connect 5 0 1 1;
#X connect 6 0 0 0;
#X connect 7 0 10 0;
#X connect 8 0 9 0;
#X connect 9 0 0 1;
#X connect 10 0 12 0;
#X connect 11 0 10 1;
#X connect 13 0 2 0;
#X connect 13 0 4 0;
#X connect 14 0 16 0;
#X connect 15 0 13 1;
#X connect 16 0 15 0;
#X restore 125 176 pd ExpFM;
#X obj 125 207 *~;
#X obj 225 181 r~ vib;
#X obj 54 -3 inlet;
#X obj 53 458 outlet~;
#X connect 0 0 1 0;
#X connect 1 0 2 0;
#X connect 2 0 3 0;
#X connect 3 0 72 0;
#X connect 6 0 9 0;
#X connect 7 0 8 0;
#X connect 8 0 72 0;
#X connect 9 0 7 0;
#X connect 11 0 14 0;
#X connect 12 0 13 0;
#X connect 13 0 72 0;
#X connect 14 0 12 0;
#X connect 16 0 19 0;
#X connect 17 0 18 0;
#X connect 18 0 72 0;
#X connect 19 0 17 0;
#X connect 21 0 25 0;
#X connect 22 0 23 0;
#X connect 23 0 72 0;
#X connect 25 0 22 0;
#X connect 26 0 30 0;
#X connect 27 0 28 0;
#X connect 28 0 72 0;
#X connect 30 0 27 0;
#X connect 37 0 47 0;
#X connect 38 0 39 0;
#X connect 39 0 72 0;
#X connect 47 0 38 0;
#X connect 49 0 54 0;
#X connect 50 0 51 0;
#X connect 51 0 72 0;
#X connect 54 0 50 0;
#X connect 56 0 61 0;
#X connect 57 0 58 0;
#X connect 58 0 72 0;
#X connect 61 0 57 0;
#X connect 63 0 3 1;
#X connect 64 0 8 1;
#X connect 65 0 13 1;
#X connect 66 0 18 1;
#X connect 67 0 23 1;
#X connect 68 0 28 1;
#X connect 69 0 39 1;
#X connect 70 0 51 1;
#X connect 71 0 58 1;
#X connect 72 0 79 0;
#X connect 73 0 0 0;
#X connect 73 0 6 0;
#X connect 73 0 11 0;
#X connect 73 0 16 0;
#X connect 73 0 21 0;
#X connect 73 0 26 0;
#X connect 73 0 37 0;
#X connect 73 0 49 0;
#X connect 73 0 56 0;
#X connect 74 0 73 1;
#X connect 75 0 80 0;
#X connect 75 1 77 0;
#X connect 76 0 78 0;
#X connect 76 0 79 1;
#X connect 77 0 76 0;
#X connect 78 0 74 0;
#X connect 79 0 88 0;
#X connect 80 0 81 0;
#X connect 81 0 82 0;
#X connect 82 0 83 0;
#X connect 83 0 73 0;
#X connect 83 0 84 0;
#X connect 84 0 85 0;
#X connect 85 0 73 0;
#X connect 86 0 85 1;
#X connect 87 0 75 0;
#X restore -76 -7 pd Voice6;
#X obj -516 24 /~ 4;
#X obj -406 24 /~ 4;
#X obj -296 24 /~ 4;
#X obj -186 24 /~ 4;
#X obj -76 24 /~ 4;
#X obj 707 102 * 0.02;
#X connect 0 0 1 0;
#X connect 1 0 2 0;
#X connect 2 0 7 0;
#X connect 3 0 4 0;
#X connect 4 0 5 0;
#X connect 7 0 115 0;
#X connect 10 0 13 0;
#X connect 11 0 12 0;
#X connect 12 0 115 0;
#X connect 13 0 11 0;
#X connect 15 0 18 0;
#X connect 16 0 17 0;
#X connect 17 0 115 0;
#X connect 18 0 16 0;
#X connect 20 0 23 0;
#X connect 21 0 22 0;
#X connect 22 0 115 0;
#X connect 23 0 21 0;
#X connect 25 0 29 0;
#X connect 26 0 27 0;
#X connect 27 0 115 0;
#X connect 29 0 26 0;
#X connect 30 0 34 0;
#X connect 31 0 32 0;
#X connect 32 0 115 0;
#X connect 34 0 31 0;
#X connect 41 0 51 0;
#X connect 42 0 43 0;
#X connect 43 0 115 0;
#X connect 51 0 42 0;
#X connect 53 0 58 0;
#X connect 54 0 55 0;
#X connect 55 0 115 0;
#X connect 58 0 54 0;
#X connect 60 0 65 0;
#X connect 61 0 62 0;
#X connect 62 0 115 0;
#X connect 65 0 61 0;
#X connect 67 0 70 0;
#X connect 68 0 71 0;
#X connect 69 0 72 0;
#X connect 70 0 76 0;
#X connect 71 0 77 0;
#X connect 72 0 78 0;
#X connect 73 0 74 0;
#X connect 74 0 79 0;
#X connect 76 0 97 0;
#X connect 77 0 98 0;
#X connect 78 0 99 0;
#X connect 79 0 100 0;
#X connect 80 0 81 0;
#X connect 81 0 82 0;
#X connect 82 0 101 0;
#X connect 83 0 84 0;
#X connect 84 0 85 0;
#X connect 85 0 102 0;
#X connect 86 0 87 0;
#X connect 87 0 88 0;
#X connect 88 0 103 0;
#X connect 89 0 90 0;
#X connect 90 0 91 0;
#X connect 91 0 104 0;
#X connect 92 0 93 0;
#X connect 93 0 94 0;
#X connect 94 0 105 0;
#X connect 95 0 96 0;
#X connect 96 0 67 0;
#X connect 96 0 68 0;
#X connect 96 0 69 0;
#X connect 96 0 73 0;
#X connect 96 0 80 0;
#X connect 96 0 83 0;
#X connect 96 0 86 0;
#X connect 96 0 89 0;
#X connect 96 0 92 0;
#X connect 106 0 7 1;
#X connect 107 0 12 1;
#X connect 108 0 17 1;
#X connect 109 0 22 1;
#X connect 110 0 27 1;
#X connect 111 0 32 1;
#X connect 112 0 43 1;
#X connect 113 0 55 1;
#X connect 114 0 62 1;
#X connect 115 0 126 0;
#X connect 116 0 0 0;
#X connect 116 0 10 0;
#X connect 116 0 15 0;
#X connect 116 0 20 0;
#X connect 116 0 25 0;
#X connect 116 0 30 0;
#X connect 116 0 41 0;
#X connect 116 0 53 0;
#X connect 116 0 60 0;
#X connect 117 0 116 1;
#X connect 118 0 119 0;
#X connect 118 1 120 0;
#X connect 119 0 161 0;
#X connect 120 0 161 1;
#X connect 121 0 160 0;
#X connect 122 0 127 0;
#X connect 122 1 124 0;
#X connect 123 0 125 0;
#X connect 123 0 126 1;
#X connect 124 0 123 0;
#X connect 125 0 117 0;
#X connect 126 0 131 0;
#X connect 126 0 5 0;
#X connect 127 0 128 0;
#X connect 128 0 129 0;
#X connect 129 0 130 0;
#X connect 130 0 116 0;
#X connect 130 0 153 0;
#X connect 131 0 132 0;
#X connect 132 0 140 0;
#X connect 132 0 141 0;
#X connect 133 0 139 1;
#X connect 133 0 148 0;
#X connect 134 0 135 0;
#X connect 135 0 133 0;
#X connect 136 0 137 0;
#X connect 137 0 133 1;
#X connect 138 0 139 0;
#X connect 139 0 151 0;
#X connect 140 0 142 0;
#X connect 141 0 143 0;
#X connect 142 0 75 0;
#X connect 143 0 75 1;
#X connect 144 0 146 0;
#X connect 145 0 134 0;
#X connect 145 0 136 0;
#X connect 146 0 145 0;
#X connect 147 0 146 0;
#X connect 148 0 149 0;
#X connect 149 0 141 1;
#X connect 150 0 140 1;
#X connect 151 0 150 0;
#X connect 152 0 146 0;
#X connect 153 0 157 0;
#X connect 154 0 172 0;
#X connect 155 0 156 0;
#X connect 157 0 116 0;
#X connect 158 0 157 1;
#X connect 159 0 167 0;
#X connect 160 0 122 0;
#X connect 160 1 159 0;
#X connect 160 2 163 0;
#X connect 160 3 164 0;
#X connect 160 4 165 0;
#X connect 160 5 166 0;
#X connect 161 0 121 0;
#X connect 161 1 121 1;
#X connect 161 2 121 2;
#X connect 163 0 168 0;
#X connect 164 0 169 0;
#X connect 165 0 170 0;
#X connect 166 0 171 0;
#X connect 167 0 132 0;
#X connect 168 0 132 0;
#X connect 169 0 132 0;
#X connect 170 0 132 0;
#X connect 171 0 132 0;
#X connect 172 0 155 0;
