#N canvas 168 85 907 641 12;
#X obj 12 370 cos~;
#X obj 12 418 *~;
#X obj 12 296 phasor~;
#X obj 12 545 *~;
#X obj 12 12 inlet;
#X obj 12 569 outlet~;
#X obj 12 36 unpack f f;
#X obj 12 113 s \$0-pitch;
#X obj 79 60 > 0;
#X obj 79 84 s \$0-gate;
#X obj 30 394 r~ d1;
#X obj 30 473 r \$0-gate;
#X msg 30 497 \$1 1;
#X obj 30 521 line~;
#X obj 12 322 *~ 1;
#X obj 12 346 -~ 0.25;
#X obj 12 148 r \$0-pitch;
#X obj 82 370 cos~;
#X obj 82 418 *~;
#X obj 82 346 -~ 0.25;
#X obj 82 322 *~ 2;
#X obj 100 394 r~ d2;
#X obj 152 370 cos~;
#X obj 152 418 *~;
#X obj 152 346 -~ 0.25;
#X obj 152 322 *~ 3;
#X obj 170 394 r~ d3;
#X obj 222 370 cos~;
#X obj 222 418 *~;
#X obj 222 346 -~ 0.25;
#X obj 222 322 *~ 4;
#X obj 240 394 r~ d4;
#X obj 292 370 cos~;
#X obj 292 418 *~;
#X obj 292 346 -~ 0.25;
#X obj 362 370 cos~;
#X obj 362 418 *~;
#X obj 362 346 -~ 0.25;
#X obj 432 370 cos~;
#X obj 432 418 *~;
#X obj 432 346 -~ 0.25;
#X obj 292 322 *~ 6;
#X obj 362 322 *~ 8;
#X obj 432 322 *~ 10;
#X obj 502 370 cos~;
#X obj 502 418 *~;
#X obj 502 346 -~ 0.25;
#X obj 572 370 cos~;
#X obj 572 418 *~;
#X obj 572 346 -~ 0.25;
#X obj 502 322 *~ 12;
#X obj 310 394 r~ d5;
#X obj 380 394 r~ d6;
#X obj 450 394 r~ d7;
#X obj 520 394 r~ d8;
#X obj 590 394 r~ d9;
#X obj 572 322 *~ 16;
#X obj 656 261 sel 1;
#X obj 746 309 vline~;
#X msg 656 285 seed 431;
#X obj 656 309 noise~;
#X obj 656 333 *~;
#X obj 658 236 r \$0-gate;
#X obj 656 479 outlet~;
#X obj 656 405 hip~ 100;
#X obj 656 381 lop~ 750;
#X obj 656 357 lop~ 1500;
#X msg 746 285 1 1 \, 0 10 1;
#X obj 656 429 /~ 2;
#X obj 12 444 /~ 5;
#X floatatom 12 172 5 0 0 0 - - -;
#X obj 12 195 sig~;
#X obj 96 176 /~ 4;
#X obj 96 200 *~;
#X obj 147 181 r vibrato;
#X obj 12 219 +~;
#X obj 12 243 mtof~;
#X obj 12 272 /~ 2;
#X obj 96 152 osc~ 6;
#X connect 0 0 1 0;
#X connect 1 0 69 0;
#X connect 2 0 14 0;
#X connect 2 0 20 0;
#X connect 2 0 56 0;
#X connect 2 0 50 0;
#X connect 2 0 43 0;
#X connect 2 0 42 0;
#X connect 2 0 41 0;
#X connect 2 0 30 0;
#X connect 2 0 25 0;
#X connect 3 0 5 0;
#X connect 4 0 6 0;
#X connect 6 0 7 0;
#X connect 6 1 8 0;
#X connect 8 0 9 0;
#X connect 10 0 1 1;
#X connect 11 0 12 0;
#X connect 12 0 13 0;
#X connect 13 0 3 1;
#X connect 14 0 15 0;
#X connect 15 0 0 0;
#X connect 16 0 70 0;
#X connect 17 0 18 0;
#X connect 18 0 69 0;
#X connect 19 0 17 0;
#X connect 20 0 19 0;
#X connect 21 0 18 1;
#X connect 22 0 23 0;
#X connect 23 0 69 0;
#X connect 24 0 22 0;
#X connect 25 0 24 0;
#X connect 26 0 23 1;
#X connect 27 0 28 0;
#X connect 28 0 69 0;
#X connect 29 0 27 0;
#X connect 30 0 29 0;
#X connect 31 0 28 1;
#X connect 32 0 33 0;
#X connect 33 0 69 0;
#X connect 34 0 32 0;
#X connect 35 0 36 0;
#X connect 36 0 69 0;
#X connect 37 0 35 0;
#X connect 38 0 39 0;
#X connect 39 0 69 0;
#X connect 40 0 38 0;
#X connect 41 0 34 0;
#X connect 42 0 37 0;
#X connect 43 0 40 0;
#X connect 44 0 45 0;
#X connect 45 0 69 0;
#X connect 46 0 44 0;
#X connect 47 0 48 0;
#X connect 48 0 69 0;
#X connect 49 0 47 0;
#X connect 50 0 46 0;
#X connect 51 0 33 1;
#X connect 52 0 36 1;
#X connect 53 0 39 1;
#X connect 54 0 45 1;
#X connect 55 0 48 1;
#X connect 56 0 49 0;
#X connect 57 0 67 0;
#X connect 57 0 59 0;
#X connect 58 0 61 1;
#X connect 60 0 61 0;
#X connect 61 0 66 0;
#X connect 62 0 57 0;
#X connect 64 0 68 0;
#X connect 65 0 64 0;
#X connect 66 0 65 0;
#X connect 67 0 58 0;
#X connect 68 0 63 0;
#X connect 69 0 3 0;
#X connect 70 0 71 0;
#X connect 71 0 75 0;
#X connect 72 0 73 0;
#X connect 73 0 75 1;
#X connect 74 0 73 1;
#X connect 75 0 76 0;
#X connect 76 0 77 0;
#X connect 77 0 2 0;
#X connect 78 0 72 0;
