#N canvas 833 146 883 644 12;
#X obj 313 93 inlet;
#X obj 313 117 unpack f f;
#X obj 313 194 s \$0-pitch;
#X obj 310 386 r \$0-pitch;
#X obj 310 410 mtof;
#X obj 310 434 phasor~;
#X obj 310 482 -~ 0.25;
#X obj 310 506 cos~;
#X obj 404 318 r \$0-pitch;
#X obj 404 342 mtof;
#X obj 404 415 /~ 6;
#X obj 404 439 *~;
#X obj 310 458 +~;
#X obj 446 347 r ratio-1;
#X obj 404 366 * 1;
#X obj 380 141 > 0;
#X obj 380 165 s \$0-gate;
#N canvas 821 283 967 619 env-1 0;
#X obj 12 103 sel 1 0;
#X obj 12 310 pack f f f f;
#X msg 12 334 1 \$2 \, \$4 \$3 \$2;
#X obj 12 358 vline~;
#X obj 39 209 / 127;
#X msg 39 257 2 \$1;
#X obj 39 281 pow;
#X obj 39 233 * 10;
#X obj 139 209 / 127;
#X msg 139 257 2 \$1;
#X obj 139 281 pow;
#X obj 139 233 * 10;
#X obj 88 36 / 127;
#X msg 88 84 2 \$1;
#X obj 88 108 pow;
#X obj 35 132 pack f f;
#X msg 35 156 0 \$2;
#X obj 181 267 / 127;
#X obj 12 382 pow~ 2;
#X obj 181 291 sqrt;
#X obj 88 60 * 11;
#X obj 12 406 *~;
#X obj 39 185 r attack-1;
#X obj 139 185 r decay-1;
#X obj 181 243 r sustain-1;
#X obj 88 12 r release-1;
#X obj 12 79 r \$0-gate;
#X obj 223 285 r env-amount-1;
#X obj 223 309 / 127;
#X msg 223 363 \$1 20;
#X obj 223 387 line~;
#X obj 12 430 outlet~;
#X obj 223 333 * 6;
#X connect 0 0 1 0;
#X connect 0 1 15 0;
#X connect 1 0 2 0;
#X connect 2 0 3 0;
#X connect 3 0 18 0;
#X connect 4 0 7 0;
#X connect 5 0 6 0;
#X connect 6 0 1 1;
#X connect 7 0 5 0;
#X connect 8 0 11 0;
#X connect 9 0 10 0;
#X connect 10 0 1 2;
#X connect 11 0 9 0;
#X connect 12 0 20 0;
#X connect 13 0 14 0;
#X connect 14 0 15 1;
#X connect 15 0 16 0;
#X connect 16 0 3 0;
#X connect 17 0 19 0;
#X connect 18 0 21 0;
#X connect 19 0 1 3;
#X connect 20 0 13 0;
#X connect 21 0 31 0;
#X connect 22 0 4 0;
#X connect 23 0 8 0;
#X connect 24 0 17 0;
#X connect 25 0 12 0;
#X connect 26 0 0 0;
#X connect 27 0 28 0;
#X connect 28 0 32 0;
#X connect 29 0 30 0;
#X connect 30 0 21 1;
#X connect 32 0 29 0;
#X restore 446 420 pd env-1;
#X obj 310 580 *~;
#N canvas 821 283 967 619 env-2 0;
#X obj 12 103 sel 1 0;
#X obj 12 310 pack f f f f;
#X msg 12 334 1 \$2 \, \$4 \$3 \$2;
#X obj 12 358 vline~;
#X obj 39 209 / 127;
#X msg 39 257 2 \$1;
#X obj 39 281 pow;
#X obj 39 233 * 10;
#X obj 139 209 / 127;
#X msg 139 257 2 \$1;
#X obj 139 281 pow;
#X obj 139 233 * 10;
#X obj 88 36 / 127;
#X msg 88 84 2 \$1;
#X obj 88 108 pow;
#X obj 35 132 pack f f;
#X msg 35 156 0 \$2;
#X obj 181 267 / 127;
#X obj 12 382 pow~ 2;
#X obj 181 291 sqrt;
#X obj 88 60 * 11;
#X obj 12 79 r \$0-gate;
#X obj 12 410 outlet~;
#X obj 39 185 r vca-attack;
#X obj 139 185 r vca-decay;
#X obj 181 243 r vca-sustain;
#X obj 88 12 r vca-release;
#X connect 0 0 1 0;
#X connect 0 1 15 0;
#X connect 1 0 2 0;
#X connect 2 0 3 0;
#X connect 3 0 18 0;
#X connect 4 0 7 0;
#X connect 5 0 6 0;
#X connect 6 0 1 1;
#X connect 7 0 5 0;
#X connect 8 0 11 0;
#X connect 9 0 10 0;
#X connect 10 0 1 2;
#X connect 11 0 9 0;
#X connect 12 0 20 0;
#X connect 13 0 14 0;
#X connect 14 0 15 1;
#X connect 15 0 16 0;
#X connect 16 0 3 0;
#X connect 17 0 19 0;
#X connect 18 0 22 0;
#X connect 19 0 1 3;
#X connect 20 0 13 0;
#X connect 21 0 0 0;
#X connect 23 0 4 0;
#X connect 24 0 8 0;
#X connect 25 0 17 0;
#X connect 26 0 12 0;
#X restore 366 561 pd env-2;
#X obj 534 318 r \$0-pitch;
#X obj 534 342 mtof;
#X obj 534 415 /~ 6;
#X obj 534 439 *~;
#X obj 534 366 * 1;
#N canvas 821 283 399 467 env-2 0;
#X obj 12 103 sel 1 0;
#X obj 12 310 pack f f f f;
#X msg 12 334 1 \$2 \, \$4 \$3 \$2;
#X obj 12 358 vline~;
#X obj 39 209 / 127;
#X msg 39 257 2 \$1;
#X obj 39 281 pow;
#X obj 39 233 * 10;
#X obj 139 209 / 127;
#X msg 139 257 2 \$1;
#X obj 139 281 pow;
#X obj 139 233 * 10;
#X obj 88 36 / 127;
#X msg 88 84 2 \$1;
#X obj 88 108 pow;
#X obj 35 132 pack f f;
#X msg 35 156 0 \$2;
#X obj 181 267 / 127;
#X obj 12 382 pow~ 2;
#X obj 181 291 sqrt;
#X obj 88 60 * 11;
#X obj 12 406 *~;
#X obj 12 79 r \$0-gate;
#X obj 223 339 / 127;
#X msg 223 363 \$1 20;
#X obj 223 387 line~;
#X obj 12 430 outlet~;
#X obj 39 185 r attack-2;
#X obj 139 185 r decay-2;
#X obj 181 243 r sustain-2;
#X obj 223 315 r env-amount-2;
#X obj 88 12 r release-2;
#X connect 0 0 1 0;
#X connect 0 1 15 0;
#X connect 1 0 2 0;
#X connect 2 0 3 0;
#X connect 3 0 18 0;
#X connect 4 0 7 0;
#X connect 5 0 6 0;
#X connect 6 0 1 1;
#X connect 7 0 5 0;
#X connect 8 0 11 0;
#X connect 9 0 10 0;
#X connect 10 0 1 2;
#X connect 11 0 9 0;
#X connect 12 0 20 0;
#X connect 13 0 14 0;
#X connect 14 0 15 1;
#X connect 15 0 16 0;
#X connect 16 0 3 0;
#X connect 17 0 19 0;
#X connect 18 0 21 0;
#X connect 19 0 1 3;
#X connect 20 0 13 0;
#X connect 21 0 26 0;
#X connect 22 0 0 0;
#X connect 23 0 24 0;
#X connect 24 0 25 0;
#X connect 25 0 21 1;
#X connect 27 0 4 0;
#X connect 28 0 8 0;
#X connect 29 0 17 0;
#X connect 30 0 23 0;
#X connect 31 0 12 0;
#X restore 576 420 pd env-2;
#X obj 576 347 r ratio-2;
#X obj 404 390 osc~;
#X obj 534 390 osc~;
#X obj 310 604 outlet~;
#X obj 380 600 delwrite~ \$0-feedback 0;
#X obj 109 259 delread~ \$0-feedback 0;
#X obj 109 413 *~;
#X obj 245 292 r feedback;
#X obj 245 316 / 127;
#X msg 146 355 \$1 20;
#X obj 146 379 line~;
#X obj 109 283 /~ 6;
#X connect 0 0 1 0;
#X connect 1 0 2 0;
#X connect 1 1 15 0;
#X connect 3 0 4 0;
#X connect 4 0 5 0;
#X connect 5 0 12 0;
#X connect 6 0 7 0;
#X connect 7 0 18 0;
#X connect 8 0 9 0;
#X connect 9 0 14 0;
#X connect 10 0 11 0;
#X connect 11 0 12 1;
#X connect 12 0 6 0;
#X connect 13 0 14 1;
#X connect 14 0 27 0;
#X connect 15 0 16 0;
#X connect 17 0 11 1;
#X connect 18 0 29 0;
#X connect 18 0 30 0;
#X connect 19 0 18 1;
#X connect 20 0 21 0;
#X connect 21 0 24 0;
#X connect 22 0 23 0;
#X connect 23 0 12 1;
#X connect 24 0 28 0;
#X connect 25 0 23 1;
#X connect 26 0 24 1;
#X connect 27 0 10 0;
#X connect 28 0 22 0;
#X connect 31 0 37 0;
#X connect 32 0 6 0;
#X connect 33 0 34 0;
#X connect 34 0 35 0;
#X connect 35 0 36 0;
#X connect 36 0 32 1;
#X connect 37 0 32 0;
