#N canvas 325 142 883 644 12;
#X obj 219 305 notein;
#X obj 219 334 mono 1 1;
#N canvas 748 85 758 667 oscillators 0;
#X obj 12 106 inlet;
#X obj 12 154 line~;
#X obj 12 222 +~;
#X obj 30 193 r tune-1;
#X obj 12 301 os.triangle~;
#X obj 52 277 sig~ 0.5;
#X obj 12 378 *~;
#X obj 170 300 r wave-1;
#X obj 30 354 == 0;
#X obj 82 378 *~;
#X obj 100 354 == 1;
#X obj 152 378 *~;
#X obj 170 354 == 2;
#X obj 12 552 *~;
#X obj 30 451 r level-1;
#X obj 30 475 / 127;
#X msg 30 499 \$1 20;
#X obj 30 523 line~;
#X obj 12 422 *~ 1;
#X obj 252 222 +~;
#X obj 252 301 os.triangle~;
#X obj 292 277 sig~ 0.5;
#X obj 252 378 *~;
#X obj 270 354 == 0;
#X obj 322 378 *~;
#X obj 340 354 == 1;
#X obj 392 378 *~;
#X obj 410 354 == 2;
#X obj 252 552 *~;
#X obj 270 475 / 127;
#X msg 270 499 \$1 20;
#X obj 270 523 line~;
#X obj 252 422 *~ 1;
#X obj 252 596 /~ 3;
#X obj 252 620 outlet~;
#X obj 482 222 +~;
#X obj 482 301 os.triangle~;
#X obj 522 277 sig~ 0.5;
#X obj 482 378 *~;
#X obj 500 354 == 0;
#X obj 552 378 *~;
#X obj 570 354 == 1;
#X obj 622 378 *~;
#X obj 640 354 == 2;
#X obj 482 552 *~;
#X obj 500 475 / 127;
#X msg 500 499 \$1 20;
#X obj 500 523 line~;
#X obj 482 422 *~ 1;
#X obj 270 193 r tune-2;
#X obj 410 300 r wave-2;
#X obj 270 451 r level-2;
#X obj 500 451 r level-3;
#X obj 640 300 r wave-3;
#X obj 500 193 r tune-3;
#X obj 12 246 mtof~;
#X obj 252 246 mtof~;
#X obj 482 246 mtof~;
#X obj 12 130 pack f f;
#X obj 65 10 r portamento;
#X obj 65 34 / 127;
#X msg 65 82 2 \$1;
#X obj 65 106 pow;
#X obj 65 58 * 10;
#X obj 591 174 osc~ 7;
#X obj 591 198 *~;
#X obj 668 88 r s-vibrato;
#X msg 673 147 \$1 20;
#X obj 673 171 line~;
#X obj 668 112 / 127;
#X connect 0 0 58 0;
#X connect 1 0 2 0;
#X connect 1 0 19 0;
#X connect 1 0 35 0;
#X connect 2 0 55 0;
#X connect 3 0 2 1;
#X connect 4 0 6 0;
#X connect 4 1 9 0;
#X connect 4 2 11 0;
#X connect 5 0 4 1;
#X connect 6 0 18 0;
#X connect 7 0 8 0;
#X connect 7 0 10 0;
#X connect 7 0 12 0;
#X connect 8 0 6 1;
#X connect 9 0 18 0;
#X connect 10 0 9 1;
#X connect 11 0 18 0;
#X connect 12 0 11 1;
#X connect 13 0 33 0;
#X connect 14 0 15 0;
#X connect 15 0 16 0;
#X connect 16 0 17 0;
#X connect 17 0 13 1;
#X connect 18 0 13 0;
#X connect 19 0 56 0;
#X connect 20 0 22 0;
#X connect 20 1 24 0;
#X connect 20 2 26 0;
#X connect 21 0 20 1;
#X connect 22 0 32 0;
#X connect 23 0 22 1;
#X connect 24 0 32 0;
#X connect 25 0 24 1;
#X connect 26 0 32 0;
#X connect 27 0 26 1;
#X connect 28 0 33 0;
#X connect 29 0 30 0;
#X connect 30 0 31 0;
#X connect 31 0 28 1;
#X connect 32 0 28 0;
#X connect 33 0 34 0;
#X connect 35 0 57 0;
#X connect 36 0 38 0;
#X connect 36 1 40 0;
#X connect 36 2 42 0;
#X connect 37 0 36 1;
#X connect 38 0 48 0;
#X connect 39 0 38 1;
#X connect 40 0 48 0;
#X connect 41 0 40 1;
#X connect 42 0 48 0;
#X connect 43 0 42 1;
#X connect 44 0 33 0;
#X connect 45 0 46 0;
#X connect 46 0 47 0;
#X connect 47 0 44 1;
#X connect 48 0 44 0;
#X connect 49 0 19 1;
#X connect 50 0 23 0;
#X connect 50 0 25 0;
#X connect 50 0 27 0;
#X connect 51 0 29 0;
#X connect 52 0 45 0;
#X connect 53 0 39 0;
#X connect 53 0 41 0;
#X connect 53 0 43 0;
#X connect 54 0 35 1;
#X connect 55 0 4 0;
#X connect 56 0 20 0;
#X connect 57 0 36 0;
#X connect 58 0 1 0;
#X connect 59 0 60 0;
#X connect 60 0 63 0;
#X connect 61 0 62 0;
#X connect 62 0 58 1;
#X connect 63 0 61 0;
#X connect 64 0 65 0;
#X connect 65 0 57 0;
#X connect 65 0 56 0;
#X connect 65 0 55 0;
#X connect 66 0 69 0;
#X connect 67 0 68 0;
#X connect 68 0 65 1;
#X connect 69 0 67 0;
#X restore 219 392 pd oscillators;
#X obj 101 66 nbx 4 19 -1e+37 1e+37 0 1 tune-1 empty TUNE-1 0 -8 0
12 -262144 -1 -1 0 256;
#X obj 168 66 hsl 128 19 0 127 0 1 level-1 empty LEVEL-1 -2 -8 0 12
-262144 -1 -1 12700 1;
#X obj 15 66 hradio 19 1 1 3 wave-1 empty WAVE-1 0 -8 0 12 -262144
-1 -1 0;
#X obj 318 35 vsl 19 128 0 127 0 1 cutoff empty CUTOFF -10 -9 0 12
-262144 -1 -1 5000 1;
#X obj 358 35 vsl 19 128 0 127 0 1 res empty RES 0 -9 0 12 -262144
-1 -1 8600 1;
#X obj 400 33 hsl 128 19 0 127 0 1 vcf-attack empty VCF-ATTACK 10 10
0 12 -262144 -1 -1 3400 1;
#X obj 400 62 hsl 128 19 0 127 0 1 vcf-decay empty VCF-DECAY 10 10
0 12 -262144 -1 -1 9800 1;
#X obj 400 91 hsl 128 19 0 127 0 1 vcf-sustain empty VCF-SUSTAIN 10
10 0 12 -262144 -1 -1 7400 1;
#X obj 400 120 hsl 128 19 0 127 0 1 vcf-release empty VCF-RELEASE 10
10 0 12 -262144 -1 -1 6100 1;
#X obj 400 149 hsl 128 19 0 127 0 1 vcf-env-amount empty VCF-ENV-AMOUNT
10 10 0 12 -262144 -1 -1 7300 1;
#X obj 550 33 hsl 128 19 0 127 0 1 vca-attack empty VCA-ATTACK 10 10
0 12 -262144 -1 -1 3900 1;
#X obj 550 62 hsl 128 19 0 127 0 1 vca-decay empty VCA-DECAY 10 10
0 12 -262144 -1 -1 9600 1;
#X obj 550 91 hsl 128 19 0 127 0 1 vca-sustain empty VCA-SUSTAIN 10
10 0 12 -262144 -1 -1 8900 1;
#X obj 550 120 hsl 128 19 0 127 0 1 vca-release empty VCA-RELEASE 10
10 0 12 -262144 -1 -1 7700 1;
#X obj 101 106 nbx 4 19 -1e+37 1e+37 0 1 tune-2 empty TUNE-1 0 -8 0
12 -262144 -1 -1 7 256;
#X obj 168 106 hsl 128 19 0 127 0 1 level-2 empty LEVEL-2 -2 -8 0 12
-262144 -1 -1 6500 1;
#X obj 15 106 hradio 19 1 1 3 wave-2 empty WAVE-2 0 -8 0 12 -262144
-1 -1 0;
#X obj 101 146 nbx 4 19 -1e+37 1e+37 0 1 tune-3 empty TUNE-3 0 -8 0
12 -262144 -1 -1 12 256;
#X obj 168 146 hsl 128 19 0 127 0 1 level-3 empty LEVEL-3 -2 -8 0 12
-262144 -1 -1 12700 1;
#X obj 15 146 hradio 19 1 1 3 wave-3 empty WAVE-3 0 -8 0 12 -262144
-1 -1 0;
#N canvas 1106 476 637 318 filter 0;
#X obj 12 12 inlet~;
#X obj 12 254 fi.lowpass~;
#X obj 236 89 r res;
#X obj 236 113 / 127;
#X obj 236 137 * 4;
#X obj 236 161 + 0.4;
#X msg 236 185 \$1 20;
#X obj 236 209 line~;
#X obj 36 41 r cutoff;
#X obj 36 65 / 127;
#X obj 36 89 * 100;
#X obj 36 113 + 30;
#X obj 36 137 mtof;
#X msg 36 161 \$1 20;
#X obj 36 185 line~;
#X obj 95 166 sig~ 2;
#X obj 95 190 pow~;
#X obj 36 209 *~;
#X obj 151 171 inlet~;
#X obj 12 278 outlet~;
#X connect 0 0 1 0;
#X connect 1 0 19 0;
#X connect 2 0 3 0;
#X connect 3 0 4 0;
#X connect 4 0 5 0;
#X connect 5 0 6 0;
#X connect 6 0 7 0;
#X connect 7 0 1 2;
#X connect 8 0 9 0;
#X connect 9 0 10 0;
#X connect 10 0 11 0;
#X connect 11 0 12 0;
#X connect 12 0 13 0;
#X connect 13 0 14 0;
#X connect 14 0 17 0;
#X connect 15 0 16 0;
#X connect 16 0 17 1;
#X connect 17 0 1 1;
#X connect 18 0 16 1;
#X restore 219 450 pd filter;
#X obj 272 363 s gate;
#N canvas 817 358 453 472 vcf-env 0;
#X obj 13 79 r gate;
#X obj 13 103 sel 1 0;
#X obj 13 310 pack f f f f;
#X obj 40 185 r vcf-attack;
#X msg 13 334 1 \$2 \, \$4 \$3 \$2;
#X obj 13 358 vline~;
#X obj 40 209 / 127;
#X msg 40 257 2 \$1;
#X obj 40 281 pow;
#X obj 40 233 * 10;
#X obj 140 209 / 127;
#X msg 140 257 2 \$1;
#X obj 140 281 pow;
#X obj 140 233 * 10;
#X obj 140 185 r vcf-decay;
#X obj 185 243 r vcf-sustain;
#X obj 13 406 *~;
#X obj 282 291 r vcf-env-amount;
#X obj 282 315 / 127;
#X obj 282 339 * 4;
#X msg 282 363 \$1 20;
#X obj 282 387 line~;
#X obj 89 36 / 127;
#X msg 89 84 2 \$1;
#X obj 89 108 pow;
#X obj 89 12 r vcf-release;
#X obj 36 132 pack f f;
#X msg 36 156 0 \$2;
#X obj 13 430 outlet~;
#X obj 185 267 / 127;
#X obj 185 291 sqrt;
#X obj 13 382 pow~ 2;
#X obj 89 60 * 11;
#X connect 0 0 1 0;
#X connect 1 0 2 0;
#X connect 1 1 26 0;
#X connect 2 0 4 0;
#X connect 3 0 6 0;
#X connect 4 0 5 0;
#X connect 5 0 31 0;
#X connect 6 0 9 0;
#X connect 7 0 8 0;
#X connect 8 0 2 1;
#X connect 9 0 7 0;
#X connect 10 0 13 0;
#X connect 11 0 12 0;
#X connect 12 0 2 2;
#X connect 13 0 11 0;
#X connect 14 0 10 0;
#X connect 15 0 29 0;
#X connect 16 0 28 0;
#X connect 17 0 18 0;
#X connect 18 0 19 0;
#X connect 19 0 20 0;
#X connect 20 0 21 0;
#X connect 21 0 16 1;
#X connect 22 0 32 0;
#X connect 23 0 24 0;
#X connect 24 0 26 1;
#X connect 25 0 22 0;
#X connect 26 0 27 0;
#X connect 27 0 5 0;
#X connect 29 0 30 0;
#X connect 30 0 2 3;
#X connect 31 0 16 0;
#X connect 32 0 23 0;
#X restore 279 421 pd vcf-env;
#N canvas 817 358 382 485 vca-env 0;
#X obj 82 79 r gate;
#X obj 82 103 sel 1 0;
#X obj 82 310 pack f f f f;
#X msg 82 334 1 \$2 \, \$4 \$3 \$2;
#X obj 82 358 vline~;
#X obj 109 209 / 127;
#X msg 109 257 2 \$1;
#X obj 109 281 pow;
#X obj 109 233 * 10;
#X obj 209 209 / 127;
#X msg 209 257 2 \$1;
#X obj 209 281 pow;
#X obj 209 233 * 10;
#X obj 158 36 / 127;
#X msg 158 84 2 \$1;
#X obj 158 108 pow;
#X obj 105 132 pack f f;
#X msg 105 156 0 \$2;
#X obj 109 185 r vca-attack;
#X obj 158 12 r vca-release;
#X obj 209 185 r vca-decay;
#X obj 251 243 r vca-sustain;
#X obj 12 425 tanh~;
#X obj 12 449 outlet~;
#X obj 12 377 inlet~;
#X obj 12 401 *~;
#X obj 251 267 / 127;
#X obj 82 382 pow~ 2;
#X obj 251 291 sqrt;
#X obj 158 60 * 11;
#X connect 0 0 1 0;
#X connect 1 0 2 0;
#X connect 1 1 16 0;
#X connect 2 0 3 0;
#X connect 3 0 4 0;
#X connect 4 0 27 0;
#X connect 5 0 8 0;
#X connect 6 0 7 0;
#X connect 7 0 2 1;
#X connect 8 0 6 0;
#X connect 9 0 12 0;
#X connect 10 0 11 0;
#X connect 11 0 2 2;
#X connect 12 0 10 0;
#X connect 13 0 29 0;
#X connect 14 0 15 0;
#X connect 15 0 16 1;
#X connect 16 0 17 0;
#X connect 17 0 4 0;
#X connect 18 0 5 0;
#X connect 19 0 13 0;
#X connect 20 0 9 0;
#X connect 21 0 26 0;
#X connect 22 0 23 0;
#X connect 24 0 25 0;
#X connect 25 0 22 0;
#X connect 26 0 28 0;
#X connect 27 0 25 1;
#X connect 28 0 2 3;
#X connect 29 0 14 0;
#X restore 219 474 pd vca-env;
#X obj 219 499 *~ 0.5;
#X obj 219 528 dac~ 1 2;
#X obj 17 28 hsl 128 19 0 127 0 1 portamento empty PORTAMENTO -2 -8
0 12 -262144 -1 -1 3100 1;
#X obj 167 28 hsl 128 19 0 127 0 1 s-vibrato r-vibrato VIBRATO -2 -8
0 12 -262144 -1 -1 0 1;
#X obj 109 305 ctlin 1;
#X obj 109 329 s r-vibrato;
#X connect 0 0 1 0;
#X connect 0 1 1 1;
#X connect 1 0 2 0;
#X connect 1 1 24 0;
#X connect 2 0 23 0;
#X connect 23 0 26 0;
#X connect 25 0 23 1;
#X connect 26 0 27 0;
#X connect 27 0 28 0;
#X connect 27 0 28 1;
#X connect 31 0 32 0;
#X coords 0 -1 1 1 700 170 2 5 5;
