#N canvas 325 142 883 644 12;
#X obj 381 158 notein;
#X floatatom 381 226 5 0 0 1 Voice - -;
#X obj 381 192 poly 6 1;
#X floatatom 461 226 5 0 0 1 MIDI - -;
#X floatatom 531 226 5 0 0 1 Velocity - -;
#X obj 381 269 pack f f f;
#X obj 381 293 clone -s 1 voice 6;
#X connect 0 0 2 0;
#X connect 0 1 2 1;
#X connect 1 0 5 0;
#X connect 2 0 1 0;
#X connect 2 1 3 0;
#X connect 2 2 4 0;
#X connect 3 0 5 1;
#X connect 4 0 5 2;
#X connect 5 0 6 0;
