#N canvas 325 142 883 644 12;
#X obj 313 163 inlet;
#X obj 313 187 unpack f f;
#X obj 313 221 s \$0-pitch;
#X obj 310 386 r \$0-pitch;
#X obj 310 410 mtof;
#X obj 310 434 phasor~;
#X obj 310 482 -~ 0.25;
#X obj 310 506 cos~;
#X obj 404 271 r \$0-pitch;
#X obj 404 295 mtof;
#X obj 404 343 phasor~;
#X obj 404 367 -~ 0.25;
#X obj 404 391 cos~;
#X obj 404 415 /~ 6;
#X obj 404 439 *~;
#X obj 310 458 +~;
#X obj 446 300 r ratio-1;
#X obj 404 319 * 1;
#X obj 415 188 > 0;
#X obj 397 221 s \$0-gate;
#N canvas 821 283 967 619 env-1 1;
#X obj 12 103 sel 1 0;
#X obj 12 310 pack f f f f;
#X msg 12 334 1 \$2 \, \$4 \$3 \$2;
#X obj 12 358 vline~;
#X obj 39 209 / 127;
#X msg 39 257 2 \$1;
#X obj 39 281 pow;
#X obj 39 233 * 10;
#X obj 139 209 / 127;
#X msg 139 257 2 \$1;
#X obj 139 281 pow;
#X obj 139 233 * 10;
#X obj 88 36 / 127;
#X msg 88 84 2 \$1;
#X obj 88 108 pow;
#X obj 35 132 pack f f;
#X msg 35 156 0 \$2;
#X obj 181 267 / 127;
#X obj 12 382 pow~ 2;
#X obj 181 291 sqrt;
#X obj 88 60 * 11;
#X obj 12 406 *~;
#X obj 39 185 r attack-1;
#X obj 139 185 r decay-1;
#X obj 181 243 r sustain-1;
#X obj 88 12 r release-1;
#X obj 12 79 r \$0-gate;
#X obj 223 315 r env-amount-1;
#X obj 223 339 / 127;
#X msg 223 363 \$1 20;
#X obj 223 387 line~;
#X obj 12 430 outlet~;
#X connect 0 0 1 0;
#X connect 0 1 15 0;
#X connect 1 0 2 0;
#X connect 2 0 3 0;
#X connect 3 0 18 0;
#X connect 4 0 7 0;
#X connect 5 0 6 0;
#X connect 6 0 1 1;
#X connect 7 0 5 0;
#X connect 8 0 11 0;
#X connect 9 0 10 0;
#X connect 10 0 1 2;
#X connect 11 0 9 0;
#X connect 12 0 20 0;
#X connect 13 0 14 0;
#X connect 14 0 15 1;
#X connect 15 0 16 0;
#X connect 16 0 3 0;
#X connect 17 0 19 0;
#X connect 18 0 21 0;
#X connect 19 0 1 3;
#X connect 20 0 13 0;
#X connect 21 0 31 0;
#X connect 22 0 4 0;
#X connect 23 0 8 0;
#X connect 24 0 17 0;
#X connect 25 0 12 0;
#X connect 26 0 0 0;
#X connect 27 0 28 0;
#X connect 28 0 29 0;
#X connect 29 0 30 0;
#X connect 30 0 21 1;
#X restore 580 519 pd env-1;
#X connect 0 0 1 0;
#X connect 1 0 2 0;
#X connect 1 1 18 0;
#X connect 3 0 4 0;
#X connect 4 0 5 0;
#X connect 5 0 15 0;
#X connect 6 0 7 0;
#X connect 8 0 9 0;
#X connect 9 0 17 0;
#X connect 10 0 11 0;
#X connect 11 0 12 0;
#X connect 12 0 13 0;
#X connect 13 0 14 0;
#X connect 14 0 15 1;
#X connect 15 0 6 0;
#X connect 16 0 17 1;
#X connect 17 0 10 0;
#X connect 18 0 19 0;
